<?xml version="1.0" encoding="UTF-8" standalone="no"?>
<!DOCTYPE svg PUBLIC "-//W3C//DTD SVG 1.1//EN"
 "http://www.w3.org/Graphics/SVG/1.1/DTD/svg11.dtd">
<!-- Generated by graphviz version 2.43.0 (0)
 -->
<!-- Title: calgopp::signal::Signal Pages: 1 -->
<svg width="613pt" height="1314pt"
 viewBox="0.00 0.00 613.00 1314.00" xmlns="http://www.w3.org/2000/svg" xmlns:xlink="http://www.w3.org/1999/xlink">
<g id="graph0" class="graph" transform="scale(1 1) rotate(0) translate(4 1310)">
<title>calgopp::signal::Signal</title>
<!-- Node1 -->
<g id="node1" class="node">
<title>Node1</title>
<g id="a_node1"><a xlink:title=" ">
<polygon fill="#999999" stroke="#666666" points="326.5,-272 194.5,-272 194.5,0 326.5,0 326.5,-272"/>
<text text-anchor="middle" x="260.5" y="-260" font-family="Helvetica,sans-Serif" font-size="10.00">{calgopp::signal::Signal</text>
<text text-anchor="start" x="202.5" y="-249" font-family="Helvetica,sans-Serif" font-size="10.00">||+ Signal()</text>
<text text-anchor="start" x="202.5" y="-238" font-family="Helvetica,sans-Serif" font-size="10.00">+ Signal()</text>
<text text-anchor="start" x="202.5" y="-227" font-family="Helvetica,sans-Serif" font-size="10.00">+ Signal()</text>
<text text-anchor="start" x="202.5" y="-216" font-family="Helvetica,sans-Serif" font-size="10.00">+ operator=()</text>
<text text-anchor="start" x="202.5" y="-205" font-family="Helvetica,sans-Serif" font-size="10.00">+ operator=()</text>
<text text-anchor="start" x="202.5" y="-194" font-family="Helvetica,sans-Serif" font-size="10.00">+ Signal()</text>
<text text-anchor="start" x="202.5" y="-183" font-family="Helvetica,sans-Serif" font-size="10.00">+ Signal()</text>
<text text-anchor="start" x="202.5" y="-172" font-family="Helvetica,sans-Serif" font-size="10.00">+ Signal()</text>
<text text-anchor="start" x="202.5" y="-161" font-family="Helvetica,sans-Serif" font-size="10.00">+ Signal()</text>
<text text-anchor="start" x="202.5" y="-150" font-family="Helvetica,sans-Serif" font-size="10.00">+ ~Signal()</text>
<text text-anchor="start" x="202.5" y="-139" font-family="Helvetica,sans-Serif" font-size="10.00">+ empty()</text>
<text text-anchor="start" x="202.5" y="-128" font-family="Helvetica,sans-Serif" font-size="10.00">+ operator bool()</text>
<text text-anchor="start" x="202.5" y="-117" font-family="Helvetica,sans-Serif" font-size="10.00">+ operator+=()</text>
<text text-anchor="start" x="202.5" y="-106" font-family="Helvetica,sans-Serif" font-size="10.00">+ operator+=()</text>
<text text-anchor="start" x="202.5" y="-95" font-family="Helvetica,sans-Serif" font-size="10.00">+ operator&#45;&#45;()</text>
<text text-anchor="start" x="202.5" y="-84" font-family="Helvetica,sans-Serif" font-size="10.00">+ append()</text>
<text text-anchor="start" x="202.5" y="-73" font-family="Helvetica,sans-Serif" font-size="10.00">+ remove()</text>
<text text-anchor="start" x="202.5" y="-62" font-family="Helvetica,sans-Serif" font-size="10.00">+ operator[]()</text>
<text text-anchor="start" x="202.5" y="-51" font-family="Helvetica,sans-Serif" font-size="10.00">+ size()</text>
<text text-anchor="start" x="202.5" y="-40" font-family="Helvetica,sans-Serif" font-size="10.00">+ peaks()</text>
<text text-anchor="start" x="202.5" y="-29" font-family="Helvetica,sans-Serif" font-size="10.00">+ begin()</text>
<text text-anchor="start" x="202.5" y="-18" font-family="Helvetica,sans-Serif" font-size="10.00">+ end()</text>
<text text-anchor="middle" x="260.5" y="-7" font-family="Helvetica,sans-Serif" font-size="10.00">}</text>
</a>
</g>
</g>
<!-- Node2 -->
<g id="node2" class="node">
<title>Node2</title>
<g id="a_node2"><a xlink:href="classcalgopp_1_1types_1_1Container.html" target="_top" xlink:title=" ">
<polygon fill="white" stroke="#666666" points="334,-613 187,-613 187,-319 334,-319 334,-613"/>
<text text-anchor="start" x="195" y="-601" font-family="Helvetica,sans-Serif" font-size="10.00">{calgopp::types::Container</text>
<text text-anchor="middle" x="260.5" y="-590" font-family="Helvetica,sans-Serif" font-size="10.00">&lt; calgopp::types::Point &gt;</text>
<text text-anchor="start" x="195" y="-579" font-family="Helvetica,sans-Serif" font-size="10.00">||+ Container()</text>
<text text-anchor="start" x="195" y="-568" font-family="Helvetica,sans-Serif" font-size="10.00">+ Container()</text>
<text text-anchor="start" x="195" y="-557" font-family="Helvetica,sans-Serif" font-size="10.00">+ Container()</text>
<text text-anchor="start" x="195" y="-546" font-family="Helvetica,sans-Serif" font-size="10.00">+ Container()</text>
<text text-anchor="start" x="195" y="-535" font-family="Helvetica,sans-Serif" font-size="10.00">+ Container()</text>
<text text-anchor="start" x="195" y="-524" font-family="Helvetica,sans-Serif" font-size="10.00">+ Container()</text>
<text text-anchor="start" x="195" y="-513" font-family="Helvetica,sans-Serif" font-size="10.00">+ ~Container()</text>
<text text-anchor="start" x="195" y="-502" font-family="Helvetica,sans-Serif" font-size="10.00">+ operator=()</text>
<text text-anchor="start" x="195" y="-491" font-family="Helvetica,sans-Serif" font-size="10.00">+ operator=()</text>
<text text-anchor="start" x="195" y="-480" font-family="Helvetica,sans-Serif" font-size="10.00">+ append()</text>
<text text-anchor="start" x="195" y="-469" font-family="Helvetica,sans-Serif" font-size="10.00">+ insert()</text>
<text text-anchor="start" x="195" y="-458" font-family="Helvetica,sans-Serif" font-size="10.00">+ remove()</text>
<text text-anchor="start" x="195" y="-447" font-family="Helvetica,sans-Serif" font-size="10.00">+ operator[]()</text>
<text text-anchor="start" x="195" y="-436" font-family="Helvetica,sans-Serif" font-size="10.00">+ at()</text>
<text text-anchor="start" x="195" y="-425" font-family="Helvetica,sans-Serif" font-size="10.00">+ index()</text>
<text text-anchor="start" x="195" y="-414" font-family="Helvetica,sans-Serif" font-size="10.00">+ size()</text>
<text text-anchor="start" x="195" y="-403" font-family="Helvetica,sans-Serif" font-size="10.00">+ capacity()</text>
<text text-anchor="start" x="195" y="-392" font-family="Helvetica,sans-Serif" font-size="10.00">+ empty()</text>
<text text-anchor="start" x="195" y="-381" font-family="Helvetica,sans-Serif" font-size="10.00">+ begin()</text>
<text text-anchor="start" x="195" y="-370" font-family="Helvetica,sans-Serif" font-size="10.00">+ end()</text>
<text text-anchor="start" x="195" y="-359" font-family="Helvetica,sans-Serif" font-size="10.00">+ find()</text>
<text text-anchor="start" x="195" y="-348" font-family="Helvetica,sans-Serif" font-size="10.00"># updateIterators()</text>
<text text-anchor="start" x="195" y="-337" font-family="Helvetica,sans-Serif" font-size="10.00"># extend()</text>
<text text-anchor="middle" x="260.5" y="-326" font-family="Helvetica,sans-Serif" font-size="10.00">}</text>
</a>
</g>
</g>
<!-- Node2&#45;&gt;Node1 -->
<g id="edge1" class="edge">
<title>Node2&#45;&gt;Node1</title>
<path fill="none" stroke="#404040" d="M260.5,-318.75C260.5,-307.33 260.5,-295.8 260.5,-284.37"/>
<polygon fill="none" stroke="#404040" points="260.5,-284.03 256.5,-278.03 260.5,-272.03 264.5,-278.03 260.5,-284.03"/>
<text text-anchor="middle" x="286.5" y="-293" font-family="Helvetica,sans-Serif" font-size="10.00"> &#45;m_points</text>
</g>
<!-- Node3 -->
<g id="node3" class="node">
<title>Node3</title>
<g id="a_node3"><a xlink:title=" ">
<polygon fill="white" stroke="#666666" points="83,-1135.5 0,-1135.5 0,-1105.5 83,-1105.5 83,-1135.5"/>
<text text-anchor="middle" x="41.5" y="-1123.5" font-family="Helvetica,sans-Serif" font-size="10.00">{unsigned int</text>
<text text-anchor="middle" x="41.5" y="-1112.5" font-family="Helvetica,sans-Serif" font-size="10.00">||}</text>
</a>
</g>
</g>
<!-- Node3&#45;&gt;Node2 -->
<g id="edge2" class="edge">
<title>Node3&#45;&gt;Node2</title>
<path fill="none" stroke="#404040" d="M38.83,-1105.12C28.65,-1046.52 -3.63,-821.2 68.5,-660 92.14,-607.17 137.1,-560.72 177.57,-526.63"/>
<polygon fill="none" stroke="#404040" points="177.68,-526.54 179.76,-519.63 186.93,-518.9 184.86,-525.8 177.68,-526.54"/>
<text text-anchor="middle" x="102.5" y="-810" font-family="Helvetica,sans-Serif" font-size="10.00"> #m_capacity</text>
<text text-anchor="middle" x="102.5" y="-799" font-family="Helvetica,sans-Serif" font-size="10.00">#m_size</text>
</g>
<!-- Node9 -->
<g id="node9" class="node">
<title>Node9</title>
<g id="a_node9"><a xlink:href="classcalgopp_1_1types_1_1Container.html" target="_top" xlink:title=" ">
<polygon fill="white" stroke="#666666" points="367,-954 220,-954 220,-660 367,-660 367,-954"/>
<text text-anchor="start" x="228" y="-942" font-family="Helvetica,sans-Serif" font-size="10.00">{calgopp::types::Container</text>
<text text-anchor="middle" x="293.5" y="-931" font-family="Helvetica,sans-Serif" font-size="10.00">&lt; Type &gt;</text>
<text text-anchor="start" x="228" y="-920" font-family="Helvetica,sans-Serif" font-size="10.00">||+ Container()</text>
<text text-anchor="start" x="228" y="-909" font-family="Helvetica,sans-Serif" font-size="10.00">+ Container()</text>
<text text-anchor="start" x="228" y="-898" font-family="Helvetica,sans-Serif" font-size="10.00">+ Container()</text>
<text text-anchor="start" x="228" y="-887" font-family="Helvetica,sans-Serif" font-size="10.00">+ Container()</text>
<text text-anchor="start" x="228" y="-876" font-family="Helvetica,sans-Serif" font-size="10.00">+ Container()</text>
<text text-anchor="start" x="228" y="-865" font-family="Helvetica,sans-Serif" font-size="10.00">+ Container()</text>
<text text-anchor="start" x="228" y="-854" font-family="Helvetica,sans-Serif" font-size="10.00">+ ~Container()</text>
<text text-anchor="start" x="228" y="-843" font-family="Helvetica,sans-Serif" font-size="10.00">+ operator=()</text>
<text text-anchor="start" x="228" y="-832" font-family="Helvetica,sans-Serif" font-size="10.00">+ operator=()</text>
<text text-anchor="start" x="228" y="-821" font-family="Helvetica,sans-Serif" font-size="10.00">+ append()</text>
<text text-anchor="start" x="228" y="-810" font-family="Helvetica,sans-Serif" font-size="10.00">+ insert()</text>
<text text-anchor="start" x="228" y="-799" font-family="Helvetica,sans-Serif" font-size="10.00">+ remove()</text>
<text text-anchor="start" x="228" y="-788" font-family="Helvetica,sans-Serif" font-size="10.00">+ operator[]()</text>
<text text-anchor="start" x="228" y="-777" font-family="Helvetica,sans-Serif" font-size="10.00">+ at()</text>
<text text-anchor="start" x="228" y="-766" font-family="Helvetica,sans-Serif" font-size="10.00">+ index()</text>
<text text-anchor="start" x="228" y="-755" font-family="Helvetica,sans-Serif" font-size="10.00">+ size()</text>
<text text-anchor="start" x="228" y="-744" font-family="Helvetica,sans-Serif" font-size="10.00">+ capacity()</text>
<text text-anchor="start" x="228" y="-733" font-family="Helvetica,sans-Serif" font-size="10.00">+ empty()</text>
<text text-anchor="start" x="228" y="-722" font-family="Helvetica,sans-Serif" font-size="10.00">+ begin()</text>
<text text-anchor="start" x="228" y="-711" font-family="Helvetica,sans-Serif" font-size="10.00">+ end()</text>
<text text-anchor="start" x="228" y="-700" font-family="Helvetica,sans-Serif" font-size="10.00">+ find()</text>
<text text-anchor="start" x="228" y="-689" font-family="Helvetica,sans-Serif" font-size="10.00"># updateIterators()</text>
<text text-anchor="start" x="228" y="-678" font-family="Helvetica,sans-Serif" font-size="10.00"># extend()</text>
<text text-anchor="middle" x="293.5" y="-667" font-family="Helvetica,sans-Serif" font-size="10.00">}</text>
</a>
</g>
</g>
<!-- Node3&#45;&gt;Node9 -->
<g id="edge9" class="edge">
<title>Node3&#45;&gt;Node9</title>
<path fill="none" stroke="#404040" d="M47.3,-1105.27C56.53,-1083.7 76.02,-1042.04 100.5,-1012 117.83,-990.74 123.47,-985.22 147.5,-972 171.15,-958.99 184.25,-970.65 205.5,-954 207.38,-952.53 209.23,-951 211.04,-949.43"/>
<polygon fill="none" stroke="#404040" points="211.09,-949.39 212.75,-942.37 219.87,-941.2 218.21,-948.22 211.09,-949.39"/>
<text text-anchor="middle" x="181.5" y="-986" font-family="Helvetica,sans-Serif" font-size="10.00"> #m_capacity</text>
<text text-anchor="middle" x="181.5" y="-975" font-family="Helvetica,sans-Serif" font-size="10.00">#m_size</text>
</g>
<!-- Node4 -->
<g id="node4" class="node">
<title>Node4</title>
<g id="a_node4"><a xlink:href="classbool.html" target="_top" xlink:title=" ">
<polygon fill="white" stroke="#666666" points="415.5,-1135.5 371.5,-1135.5 371.5,-1105.5 415.5,-1105.5 415.5,-1135.5"/>
<text text-anchor="middle" x="393.5" y="-1123.5" font-family="Helvetica,sans-Serif" font-size="10.00">{bool</text>
<text text-anchor="middle" x="393.5" y="-1112.5" font-family="Helvetica,sans-Serif" font-size="10.00">||}</text>
</a>
</g>
</g>
<!-- Node4&#45;&gt;Node2 -->
<g id="edge3" class="edge">
<title>Node4&#45;&gt;Node2</title>
<path fill="none" stroke="#404040" d="M394.62,-1105.15C399.96,-1034.29 421.29,-721.64 389.5,-631 379.18,-601.58 361.22,-573.4 341.92,-548.96"/>
<polygon fill="none" stroke="#404040" points="341.74,-548.74 334.85,-546.61 334.17,-539.43 341.06,-541.56 341.74,-548.74"/>
<text text-anchor="middle" x="436.5" y="-804.5" font-family="Helvetica,sans-Serif" font-size="10.00"> #m_empty</text>
</g>
<!-- Node4&#45;&gt;Node9 -->
<g id="edge10" class="edge">
<title>Node4&#45;&gt;Node9</title>
<path fill="none" stroke="#404040" d="M388.75,-1105.3C381.35,-1084.12 365.88,-1043.36 346.5,-1012 341.03,-1003.14 336.01,-1003.39 331.5,-994 327.19,-985.03 323.37,-975.59 319.98,-965.92"/>
<polygon fill="none" stroke="#404040" points="319.96,-965.86 314.28,-961.42 316.19,-954.47 321.87,-958.91 319.96,-965.86"/>
<text text-anchor="middle" x="360.5" y="-980.5" font-family="Helvetica,sans-Serif" font-size="10.00"> #m_empty</text>
</g>
<!-- Node5 -->
<g id="node5" class="node">
<title>Node5</title>
<g id="a_node5"><a xlink:href="structcalgopp_1_1types_1_1Point.html" target="_top" xlink:title=" ">
<polygon fill="white" stroke="#666666" points="605,-849.5 480,-849.5 480,-764.5 605,-764.5 605,-849.5"/>
<text text-anchor="middle" x="542.5" y="-837.5" font-family="Helvetica,sans-Serif" font-size="10.00">{calgopp::types::Point</text>
<text text-anchor="start" x="488" y="-826.5" font-family="Helvetica,sans-Serif" font-size="10.00">||+ Point()</text>
<text text-anchor="start" x="488" y="-815.5" font-family="Helvetica,sans-Serif" font-size="10.00">+ Point()</text>
<text text-anchor="start" x="488" y="-804.5" font-family="Helvetica,sans-Serif" font-size="10.00">+ Point()</text>
<text text-anchor="start" x="488" y="-793.5" font-family="Helvetica,sans-Serif" font-size="10.00">+ operator+=()</text>
<text text-anchor="start" x="488" y="-782.5" font-family="Helvetica,sans-Serif" font-size="10.00">+ operator&#45;=()</text>
<text text-anchor="middle" x="542.5" y="-771.5" font-family="Helvetica,sans-Serif" font-size="10.00">}</text>
</a>
</g>
</g>
<!-- Node5&#45;&gt;Node2 -->
<g id="edge4" class="edge">
<title>Node5&#45;&gt;Node2</title>
<path fill="none" stroke="#404040" d="M524.95,-764.19C511.14,-733.76 490.14,-692.38 465.5,-660 430.21,-613.62 383.34,-568.59 343.31,-533.7"/>
<polygon fill="none" stroke="#404040" points="343.18,-533.58 336.02,-532.69 334.1,-525.74 341.25,-526.63 343.18,-533.58"/>
<text text-anchor="middle" x="471" y="-634" font-family="Helvetica,sans-Serif" font-size="10.00"> #m_data</text>
</g>
<!-- Node6 -->
<g id="node6" class="node">
<title>Node6</title>
<g id="a_node6"><a xlink:title=" ">
<polygon fill="white" stroke="#666666" points="582.5,-1135.5 502.5,-1135.5 502.5,-1105.5 582.5,-1105.5 582.5,-1135.5"/>
<text text-anchor="middle" x="542.5" y="-1123.5" font-family="Helvetica,sans-Serif" font-size="10.00">{long double</text>
<text text-anchor="middle" x="542.5" y="-1112.5" font-family="Helvetica,sans-Serif" font-size="10.00">||}</text>
</a>
</g>
</g>
<!-- Node6&#45;&gt;Node5 -->
<g id="edge5" class="edge">
<title>Node6&#45;&gt;Node5</title>
<path fill="none" stroke="#404040" d="M542.5,-1105.31C542.5,-1062.89 542.5,-935.48 542.5,-861.94"/>
<polygon fill="none" stroke="#404040" points="542.5,-861.75 538.5,-855.75 542.5,-849.75 546.5,-855.75 542.5,-861.75"/>
<text text-anchor="middle" x="551.5" y="-986" font-family="Helvetica,sans-Serif" font-size="10.00"> +x</text>
<text text-anchor="middle" x="551.5" y="-975" font-family="Helvetica,sans-Serif" font-size="10.00">+y</text>
</g>
<!-- Node7 -->
<g id="node7" class="node">
<title>Node7</title>
<g id="a_node7"><a xlink:href="classcalgopp_1_1types_1_1Container_1_1Iterator.html" target="_top" xlink:title=" ">
<polygon fill="white" stroke="#666666" points="257,-1229 110,-1229 110,-1012 257,-1012 257,-1229"/>
<text text-anchor="start" x="118" y="-1217" font-family="Helvetica,sans-Serif" font-size="10.00">{calgopp::types::Container</text>
<text text-anchor="middle" x="183.5" y="-1206" font-family="Helvetica,sans-Serif" font-size="10.00">&lt; Type &gt;::Iterator</text>
<text text-anchor="start" x="118" y="-1195" font-family="Helvetica,sans-Serif" font-size="10.00">||+ Iterator()</text>
<text text-anchor="start" x="118" y="-1184" font-family="Helvetica,sans-Serif" font-size="10.00">+ Iterator()</text>
<text text-anchor="start" x="118" y="-1173" font-family="Helvetica,sans-Serif" font-size="10.00">+ operator++()</text>
<text text-anchor="start" x="118" y="-1162" font-family="Helvetica,sans-Serif" font-size="10.00">+ operator++()</text>
<text text-anchor="start" x="118" y="-1151" font-family="Helvetica,sans-Serif" font-size="10.00">+ operator&#45;&#45;()</text>
<text text-anchor="start" x="118" y="-1140" font-family="Helvetica,sans-Serif" font-size="10.00">+ operator&#45;&#45;()</text>
<text text-anchor="start" x="118" y="-1129" font-family="Helvetica,sans-Serif" font-size="10.00">+ operator&#45;&gt;()</text>
<text text-anchor="start" x="118" y="-1118" font-family="Helvetica,sans-Serif" font-size="10.00">+ operator+()</text>
<text text-anchor="start" x="118" y="-1107" font-family="Helvetica,sans-Serif" font-size="10.00">+ operator&#45;()</text>
<text text-anchor="start" x="118" y="-1096" font-family="Helvetica,sans-Serif" font-size="10.00">+ operator==()</text>
<text text-anchor="start" x="118" y="-1085" font-family="Helvetica,sans-Serif" font-size="10.00">+ operator!=()</text>
<text text-anchor="start" x="118" y="-1074" font-family="Helvetica,sans-Serif" font-size="10.00">+ operator&gt;()</text>
<text text-anchor="start" x="118" y="-1063" font-family="Helvetica,sans-Serif" font-size="10.00">+ operator&lt;()</text>
<text text-anchor="start" x="118" y="-1052" font-family="Helvetica,sans-Serif" font-size="10.00">+ operator&gt;=()</text>
<text text-anchor="start" x="118" y="-1041" font-family="Helvetica,sans-Serif" font-size="10.00">+ operator&lt;=()</text>
<text text-anchor="start" x="118" y="-1030" font-family="Helvetica,sans-Serif" font-size="10.00">+ operator*()</text>
<text text-anchor="middle" x="183.5" y="-1019" font-family="Helvetica,sans-Serif" font-size="10.00">}</text>
</a>
</g>
</g>
<!-- Node7&#45;&gt;Node2 -->
<g id="edge6" class="edge">
<title>Node7&#45;&gt;Node2</title>
<path fill="none" stroke="#404040" d="M159.04,-1011.92C141.88,-917.68 126.79,-777.78 156.5,-660 162.23,-637.27 171.23,-614.3 181.59,-592.53"/>
<polygon fill="none" stroke="#404040" points="181.66,-592.38 180.71,-585.23 186.94,-581.61 187.89,-588.75 181.66,-592.38"/>
<text text-anchor="middle" x="183.5" y="-810" font-family="Helvetica,sans-Serif" font-size="10.00"> #m_begin</text>
<text text-anchor="middle" x="183.5" y="-799" font-family="Helvetica,sans-Serif" font-size="10.00">#m_end</text>
</g>
<!-- Node7&#45;&gt;Node9 -->
<g id="edge12" class="edge">
<title>Node7&#45;&gt;Node9</title>
<path fill="none" stroke="#404040" d="M212.57,-1011.9C216.68,-998.39 221.03,-984.82 225.5,-972 226.23,-969.91 226.97,-967.8 227.72,-965.69"/>
<polygon fill="none" stroke="#404040" points="227.76,-965.59 226.04,-958.59 231.85,-954.31 233.57,-961.32 227.76,-965.59"/>
<text text-anchor="middle" x="252.5" y="-986" font-family="Helvetica,sans-Serif" font-size="10.00"> #m_begin</text>
<text text-anchor="middle" x="252.5" y="-975" font-family="Helvetica,sans-Serif" font-size="10.00">#m_end</text>
</g>
<!-- Node8 -->
<g id="node8" class="node">
<title>Node8</title>
<g id="a_node8"><a xlink:title=" ">
<polygon fill="white" stroke="#666666" points="265,-1306 212,-1306 212,-1276 265,-1276 265,-1306"/>
<text text-anchor="middle" x="238.5" y="-1294" font-family="Helvetica,sans-Serif" font-size="10.00">{Type *</text>
<text text-anchor="middle" x="238.5" y="-1283" font-family="Helvetica,sans-Serif" font-size="10.00">||}</text>
</a>
</g>
</g>
<!-- Node8&#45;&gt;Node7 -->
<g id="edge7" class="edge">
<title>Node8&#45;&gt;Node7</title>
<path fill="none" stroke="#404040" d="M233.91,-1275.92C231.01,-1267.06 226.97,-1254.68 222.42,-1240.75"/>
<polygon fill="none" stroke="#404040" points="222.4,-1240.69 216.74,-1236.23 218.68,-1229.28 224.35,-1233.74 222.4,-1240.69"/>
<text text-anchor="middle" x="250.5" y="-1250" font-family="Helvetica,sans-Serif" font-size="10.00"> &#45;m_data</text>
</g>
<!-- Node8&#45;&gt;Node9 -->
<g id="edge11" class="edge">
<title>Node8&#45;&gt;Node9</title>
<path fill="none" stroke="#404040" d="M261.42,-1275.88C267.39,-1271 273.09,-1264.97 276.5,-1258 300.89,-1208.06 303.43,-1074.8 300.87,-966.17"/>
<polygon fill="none" stroke="#404040" points="300.87,-966.06 296.72,-960.16 300.56,-954.06 304.72,-959.96 300.87,-966.06"/>
<text text-anchor="middle" x="327" y="-1118" font-family="Helvetica,sans-Serif" font-size="10.00"> #m_data</text>
</g>
<!-- Node9&#45;&gt;Node2 -->
<g id="edge8" class="edge">
<title>Node9&#45;&gt;Node2</title>
<path fill="none" stroke="orange" d="M262.31,-649.63C262.02,-647.07 261.75,-644.53 261.5,-642 260.57,-632.63 259.85,-622.96 259.3,-613.2"/>
<polygon fill="orange" stroke="orange" points="258.84,-650.06 263.52,-659.57 265.79,-649.22 258.84,-650.06"/>
<text text-anchor="middle" x="325.5" y="-634" font-family="Helvetica,sans-Serif" font-size="10.00"> &lt; calgopp::types::Point &gt;</text>
</g>
</g>
</svg>
