<?xml version="1.0" encoding="UTF-8" standalone="no"?>
<!DOCTYPE svg PUBLIC "-//W3C//DTD SVG 1.1//EN"
 "http://www.w3.org/Graphics/SVG/1.1/DTD/svg11.dtd">
<!-- Generated by graphviz version 2.43.0 (0)
 -->
<!-- Title: calgopp::signal::Signal Pages: 1 -->
<svg width="144pt" height="159pt"
 viewBox="0.00 0.00 144.00 159.00" xmlns="http://www.w3.org/2000/svg" xmlns:xlink="http://www.w3.org/1999/xlink">
<g id="graph0" class="graph" transform="scale(1 1) rotate(0) translate(4 155)">
<title>calgopp::signal::Signal</title>
<!-- Node1 -->
<g id="node1" class="node">
<title>Node1</title>
<g id="a_node1"><a xlink:title=" ">
<polygon fill="#999999" stroke="#666666" points="134,-63 2,-63 2,0 134,0 134,-63"/>
<text text-anchor="middle" x="68" y="-51" font-family="Helvetica,sans-Serif" font-size="10.00">{calgopp::signal::Signal</text>
<text text-anchor="start" x="10" y="-40" font-family="Helvetica,sans-Serif" font-size="10.00">||+ Signal()</text>
<text text-anchor="start" x="10" y="-29" font-family="Helvetica,sans-Serif" font-size="10.00">+ peaks()</text>
<text text-anchor="start" x="10" y="-18" font-family="Helvetica,sans-Serif" font-size="10.00">+ points()</text>
<text text-anchor="middle" x="68" y="-7" font-family="Helvetica,sans-Serif" font-size="10.00">}</text>
</a>
</g>
</g>
<!-- Node2 -->
<g id="node2" class="node">
<title>Node2</title>
<g id="a_node2"><a xlink:title=" ">
<polygon fill="white" stroke="#666666" points="136,-151 0,-151 0,-110 136,-110 136,-151"/>
<text text-anchor="start" x="8" y="-139" font-family="Helvetica,sans-Serif" font-size="10.00">{vector&lt; calgopp::types</text>
<text text-anchor="middle" x="68" y="-128" font-family="Helvetica,sans-Serif" font-size="10.00">::Point &gt;</text>
<text text-anchor="middle" x="68" y="-117" font-family="Helvetica,sans-Serif" font-size="10.00">||}</text>
</a>
</g>
</g>
<!-- Node2&#45;&gt;Node1 -->
<g id="edge1" class="edge">
<title>Node2&#45;&gt;Node1</title>
<path fill="none" stroke="#404040" d="M68,-109.87C68,-99.93 68,-87.44 68,-75.42"/>
<polygon fill="none" stroke="#404040" points="68,-75.18 64,-69.18 68,-63.18 72,-69.18 68,-75.18"/>
<text text-anchor="middle" x="94" y="-84" font-family="Helvetica,sans-Serif" font-size="10.00"> &#45;m_points</text>
</g>
</g>
</svg>
