<?xml version="1.0" encoding="UTF-8" standalone="no"?>
<!DOCTYPE svg PUBLIC "-//W3C//DTD SVG 1.1//EN"
 "http://www.w3.org/Graphics/SVG/1.1/DTD/svg11.dtd">
<!-- Generated by graphviz version 2.43.0 (0)
 -->
<!-- Title: calgopp::types::Container&lt; Type &gt; Pages: 1 -->
<svg width="428pt" height="654pt"
 viewBox="0.00 0.00 428.00 654.00" xmlns="http://www.w3.org/2000/svg" xmlns:xlink="http://www.w3.org/1999/xlink">
<g id="graph0" class="graph" transform="scale(1 1) rotate(0) translate(4 650)">
<title>calgopp::types::Container&lt; Type &gt;</title>
<!-- Node1 -->
<g id="node1" class="node">
<title>Node1</title>
<g id="a_node1"><a xlink:title=" ">
<polygon fill="#999999" stroke="#666666" points="242,-294 95,-294 95,0 242,0 242,-294"/>
<text text-anchor="start" x="103" y="-282" font-family="Helvetica,sans-Serif" font-size="10.00">{calgopp::types::Container</text>
<text text-anchor="middle" x="168.5" y="-271" font-family="Helvetica,sans-Serif" font-size="10.00">&lt; Type &gt;</text>
<text text-anchor="start" x="103" y="-260" font-family="Helvetica,sans-Serif" font-size="10.00">||+ Container()</text>
<text text-anchor="start" x="103" y="-249" font-family="Helvetica,sans-Serif" font-size="10.00">+ Container()</text>
<text text-anchor="start" x="103" y="-238" font-family="Helvetica,sans-Serif" font-size="10.00">+ Container()</text>
<text text-anchor="start" x="103" y="-227" font-family="Helvetica,sans-Serif" font-size="10.00">+ Container()</text>
<text text-anchor="start" x="103" y="-216" font-family="Helvetica,sans-Serif" font-size="10.00">+ Container()</text>
<text text-anchor="start" x="103" y="-205" font-family="Helvetica,sans-Serif" font-size="10.00">+ Container()</text>
<text text-anchor="start" x="103" y="-194" font-family="Helvetica,sans-Serif" font-size="10.00">+ ~Container()</text>
<text text-anchor="start" x="103" y="-183" font-family="Helvetica,sans-Serif" font-size="10.00">+ operator=()</text>
<text text-anchor="start" x="103" y="-172" font-family="Helvetica,sans-Serif" font-size="10.00">+ operator=()</text>
<text text-anchor="start" x="103" y="-161" font-family="Helvetica,sans-Serif" font-size="10.00">+ append()</text>
<text text-anchor="start" x="103" y="-150" font-family="Helvetica,sans-Serif" font-size="10.00">+ insert()</text>
<text text-anchor="start" x="103" y="-139" font-family="Helvetica,sans-Serif" font-size="10.00">+ remove()</text>
<text text-anchor="start" x="103" y="-128" font-family="Helvetica,sans-Serif" font-size="10.00">+ operator[]()</text>
<text text-anchor="start" x="103" y="-117" font-family="Helvetica,sans-Serif" font-size="10.00">+ at()</text>
<text text-anchor="start" x="103" y="-106" font-family="Helvetica,sans-Serif" font-size="10.00">+ index()</text>
<text text-anchor="start" x="103" y="-95" font-family="Helvetica,sans-Serif" font-size="10.00">+ size()</text>
<text text-anchor="start" x="103" y="-84" font-family="Helvetica,sans-Serif" font-size="10.00">+ capacity()</text>
<text text-anchor="start" x="103" y="-73" font-family="Helvetica,sans-Serif" font-size="10.00">+ empty()</text>
<text text-anchor="start" x="103" y="-62" font-family="Helvetica,sans-Serif" font-size="10.00">+ begin()</text>
<text text-anchor="start" x="103" y="-51" font-family="Helvetica,sans-Serif" font-size="10.00">+ end()</text>
<text text-anchor="start" x="103" y="-40" font-family="Helvetica,sans-Serif" font-size="10.00">+ find()</text>
<text text-anchor="start" x="103" y="-29" font-family="Helvetica,sans-Serif" font-size="10.00"># updateIterators()</text>
<text text-anchor="start" x="103" y="-18" font-family="Helvetica,sans-Serif" font-size="10.00"># extend()</text>
<text text-anchor="middle" x="168.5" y="-7" font-family="Helvetica,sans-Serif" font-size="10.00">}</text>
</a>
</g>
</g>
<!-- Node2 -->
<g id="node2" class="node">
<title>Node2</title>
<g id="a_node2"><a xlink:title=" ">
<polygon fill="white" stroke="#666666" points="83,-475.5 0,-475.5 0,-445.5 83,-445.5 83,-475.5"/>
<text text-anchor="middle" x="41.5" y="-463.5" font-family="Helvetica,sans-Serif" font-size="10.00">{unsigned int</text>
<text text-anchor="middle" x="41.5" y="-452.5" font-family="Helvetica,sans-Serif" font-size="10.00">||}</text>
</a>
</g>
</g>
<!-- Node2&#45;&gt;Node1 -->
<g id="edge1" class="edge">
<title>Node2&#45;&gt;Node1</title>
<path fill="none" stroke="#404040" d="M41.24,-445.17C41.19,-418.21 43.26,-358.48 60.5,-312 67.72,-292.54 77.61,-273.06 88.5,-254.67"/>
<polygon fill="none" stroke="#404040" points="88.59,-254.52 88.29,-247.32 94.83,-244.27 95.13,-251.48 88.59,-254.52"/>
<text text-anchor="middle" x="94.5" y="-326" font-family="Helvetica,sans-Serif" font-size="10.00"> #m_capacity</text>
<text text-anchor="middle" x="94.5" y="-315" font-family="Helvetica,sans-Serif" font-size="10.00">#m_size</text>
</g>
<!-- Node3 -->
<g id="node3" class="node">
<title>Node3</title>
<g id="a_node3"><a xlink:href="classbool.html" target="_top" xlink:title=" ">
<polygon fill="white" stroke="#666666" points="154.5,-475.5 110.5,-475.5 110.5,-445.5 154.5,-445.5 154.5,-475.5"/>
<text text-anchor="middle" x="132.5" y="-463.5" font-family="Helvetica,sans-Serif" font-size="10.00">{bool</text>
<text text-anchor="middle" x="132.5" y="-452.5" font-family="Helvetica,sans-Serif" font-size="10.00">||}</text>
</a>
</g>
</g>
<!-- Node3&#45;&gt;Node1 -->
<g id="edge2" class="edge">
<title>Node3&#45;&gt;Node1</title>
<path fill="none" stroke="#404040" d="M131.64,-445.21C130.25,-418.8 128.2,-360.62 133.5,-312 133.7,-310.19 133.91,-308.37 134.12,-306.55"/>
<polygon fill="none" stroke="#404040" points="134.16,-306.29 130.97,-299.83 135.72,-294.4 138.9,-300.86 134.16,-306.29"/>
<text text-anchor="middle" x="162.5" y="-320.5" font-family="Helvetica,sans-Serif" font-size="10.00"> #m_empty</text>
</g>
<!-- Node4 -->
<g id="node4" class="node">
<title>Node4</title>
<g id="a_node4"><a xlink:title=" ">
<polygon fill="white" stroke="#666666" points="248,-646 195,-646 195,-616 248,-616 248,-646"/>
<text text-anchor="middle" x="221.5" y="-634" font-family="Helvetica,sans-Serif" font-size="10.00">{Type *</text>
<text text-anchor="middle" x="221.5" y="-623" font-family="Helvetica,sans-Serif" font-size="10.00">||}</text>
</a>
</g>
</g>
<!-- Node4&#45;&gt;Node1 -->
<g id="edge3" class="edge">
<title>Node4&#45;&gt;Node1</title>
<path fill="none" stroke="#404040" d="M219.79,-615.96C218.31,-603.6 216.15,-585.12 214.5,-569 202.85,-454.91 204.58,-425.93 191.5,-312 191.28,-310.08 191.05,-308.15 190.83,-306.2"/>
<polygon fill="none" stroke="#404040" points="190.81,-306.06 186.12,-300.58 189.37,-294.15 194.06,-299.63 190.81,-306.06"/>
<text text-anchor="middle" x="239" y="-458" font-family="Helvetica,sans-Serif" font-size="10.00"> #m_data</text>
</g>
<!-- Node5 -->
<g id="node5" class="node">
<title>Node5</title>
<g id="a_node5"><a xlink:href="classcalgopp_1_1types_1_1Container_1_1Iterator.html" target="_top" xlink:title=" ">
<polygon fill="white" stroke="#666666" points="420,-569 273,-569 273,-352 420,-352 420,-569"/>
<text text-anchor="start" x="281" y="-557" font-family="Helvetica,sans-Serif" font-size="10.00">{calgopp::types::Container</text>
<text text-anchor="middle" x="346.5" y="-546" font-family="Helvetica,sans-Serif" font-size="10.00">&lt; Type &gt;::Iterator</text>
<text text-anchor="start" x="281" y="-535" font-family="Helvetica,sans-Serif" font-size="10.00">||+ Iterator()</text>
<text text-anchor="start" x="281" y="-524" font-family="Helvetica,sans-Serif" font-size="10.00">+ Iterator()</text>
<text text-anchor="start" x="281" y="-513" font-family="Helvetica,sans-Serif" font-size="10.00">+ operator++()</text>
<text text-anchor="start" x="281" y="-502" font-family="Helvetica,sans-Serif" font-size="10.00">+ operator++()</text>
<text text-anchor="start" x="281" y="-491" font-family="Helvetica,sans-Serif" font-size="10.00">+ operator&#45;&#45;()</text>
<text text-anchor="start" x="281" y="-480" font-family="Helvetica,sans-Serif" font-size="10.00">+ operator&#45;&#45;()</text>
<text text-anchor="start" x="281" y="-469" font-family="Helvetica,sans-Serif" font-size="10.00">+ operator&#45;&gt;()</text>
<text text-anchor="start" x="281" y="-458" font-family="Helvetica,sans-Serif" font-size="10.00">+ operator+()</text>
<text text-anchor="start" x="281" y="-447" font-family="Helvetica,sans-Serif" font-size="10.00">+ operator&#45;()</text>
<text text-anchor="start" x="281" y="-436" font-family="Helvetica,sans-Serif" font-size="10.00">+ operator==()</text>
<text text-anchor="start" x="281" y="-425" font-family="Helvetica,sans-Serif" font-size="10.00">+ operator!=()</text>
<text text-anchor="start" x="281" y="-414" font-family="Helvetica,sans-Serif" font-size="10.00">+ operator&gt;()</text>
<text text-anchor="start" x="281" y="-403" font-family="Helvetica,sans-Serif" font-size="10.00">+ operator&lt;()</text>
<text text-anchor="start" x="281" y="-392" font-family="Helvetica,sans-Serif" font-size="10.00">+ operator&gt;=()</text>
<text text-anchor="start" x="281" y="-381" font-family="Helvetica,sans-Serif" font-size="10.00">+ operator&lt;=()</text>
<text text-anchor="start" x="281" y="-370" font-family="Helvetica,sans-Serif" font-size="10.00">+ operator*()</text>
<text text-anchor="middle" x="346.5" y="-359" font-family="Helvetica,sans-Serif" font-size="10.00">}</text>
</a>
</g>
</g>
<!-- Node4&#45;&gt;Node5 -->
<g id="edge5" class="edge">
<title>Node4&#45;&gt;Node5</title>
<path fill="none" stroke="#404040" d="M231.94,-615.92C240.01,-605.05 252.01,-588.87 265.25,-571.03"/>
<polygon fill="none" stroke="#404040" points="265.56,-570.6 265.93,-563.4 272.71,-560.96 272.35,-568.17 265.56,-570.6"/>
<text text-anchor="middle" x="274.5" y="-590" font-family="Helvetica,sans-Serif" font-size="10.00"> &#45;m_data</text>
</g>
<!-- Node5&#45;&gt;Node1 -->
<g id="edge4" class="edge">
<title>Node5&#45;&gt;Node1</title>
<path fill="none" stroke="#404040" d="M284.99,-351.86C273.12,-331.08 260.52,-309.04 248.17,-287.41"/>
<polygon fill="none" stroke="#404040" points="248.08,-287.26 241.63,-284.04 242.12,-276.84 248.57,-280.07 248.08,-287.26"/>
<text text-anchor="middle" x="300.5" y="-326" font-family="Helvetica,sans-Serif" font-size="10.00"> #m_begin</text>
<text text-anchor="middle" x="300.5" y="-315" font-family="Helvetica,sans-Serif" font-size="10.00">#m_end</text>
</g>
</g>
</svg>
