<?xml version="1.0" encoding="UTF-8" standalone="no"?>
<!DOCTYPE svg PUBLIC "-//W3C//DTD SVG 1.1//EN"
 "http://www.w3.org/Graphics/SVG/1.1/DTD/svg11.dtd">
<!-- Generated by graphviz version 2.43.0 (0)
 -->
<!-- Title: calgopp::signal::process::IProcessor Pages: 1 -->
<svg width="158pt" height="181pt"
 viewBox="0.00 0.00 158.00 181.00" xmlns="http://www.w3.org/2000/svg" xmlns:xlink="http://www.w3.org/1999/xlink">
<g id="graph0" class="graph" transform="scale(1 1) rotate(0) translate(4 177)">
<title>calgopp::signal::process::IProcessor</title>
<!-- Node1 -->
<g id="node1" class="node">
<title>Node1</title>
<g id="a_node1"><a xlink:title=" ">
<polygon fill="#999999" stroke="#666666" points="145,-173 5,-173 5,-88 145,-88 145,-173"/>
<text text-anchor="start" x="13" y="-161" font-family="Helvetica,sans-Serif" font-size="10.00">{calgopp::signal::process</text>
<text text-anchor="middle" x="75" y="-150" font-family="Helvetica,sans-Serif" font-size="10.00">::IProcessor</text>
<text text-anchor="start" x="13" y="-139" font-family="Helvetica,sans-Serif" font-size="10.00">||+ ~IProcessor()</text>
<text text-anchor="start" x="13" y="-128" font-family="Helvetica,sans-Serif" font-size="10.00">+ preProcess()</text>
<text text-anchor="start" x="13" y="-117" font-family="Helvetica,sans-Serif" font-size="10.00">+ process()</text>
<text text-anchor="start" x="13" y="-106" font-family="Helvetica,sans-Serif" font-size="10.00">+ postProcess()</text>
<text text-anchor="middle" x="75" y="-95" font-family="Helvetica,sans-Serif" font-size="10.00">}</text>
</a>
</g>
</g>
<!-- Node2 -->
<g id="node2" class="node">
<title>Node2</title>
<g id="a_node2"><a xlink:href="classcalgopp_1_1signal_1_1transform_1_1Jacymirski.html" target="_top" xlink:title=" ">
<polygon fill="white" stroke="#666666" points="150,-52 0,-52 0,0 150,0 150,-52"/>
<text text-anchor="start" x="8" y="-40" font-family="Helvetica,sans-Serif" font-size="10.00">{calgopp::signal::transform</text>
<text text-anchor="middle" x="75" y="-29" font-family="Helvetica,sans-Serif" font-size="10.00">::Jacymirski</text>
<text text-anchor="start" x="8" y="-18" font-family="Helvetica,sans-Serif" font-size="10.00">||+ process()</text>
<text text-anchor="middle" x="75" y="-7" font-family="Helvetica,sans-Serif" font-size="10.00">}</text>
</a>
</g>
</g>
<!-- Node1&#45;&gt;Node2 -->
<g id="edge1" class="edge">
<title>Node1&#45;&gt;Node2</title>
<path fill="none" stroke="#63b8ff" d="M75,-77.79C75,-68.87 75,-59.97 75,-52.17"/>
<polygon fill="none" stroke="#63b8ff" points="71.5,-77.81 75,-87.81 78.5,-77.81 71.5,-77.81"/>
</g>
</g>
</svg>
