<?xml version="1.0" encoding="UTF-8" standalone="no"?>
<!DOCTYPE svg PUBLIC "-//W3C//DTD SVG 1.1//EN"
 "http://www.w3.org/Graphics/SVG/1.1/DTD/svg11.dtd">
<!-- Generated by graphviz version 2.43.0 (0)
 -->
<!-- Title: lib/signal Pages: 1 -->
<svg width="166pt" height="196pt"
 viewBox="0.00 0.00 166.00 196.00" xmlns="http://www.w3.org/2000/svg" xmlns:xlink="http://www.w3.org/1999/xlink">
<g id="graph0" class="graph" transform="scale(1 1) rotate(0) translate(4 192)">
<title>lib/signal</title>
<g id="clust1" class="cluster">
<title>clusterdir_97aefd0d527b934f1d99a682da8fe6a9</title>
<g id="a_clust1"><a xlink:href="dir_97aefd0d527b934f1d99a682da8fe6a9.html" target="_top" xlink:title="lib">
<polygon fill="#edf0f7" stroke="#404040" stroke-dasharray="5,2" points="8,-8 8,-180 150,-180 150,-8 8,-8"/>
<text text-anchor="middle" x="79" y="-168" font-family="Helvetica,sans-Serif" font-size="10.00">lib</text>
</a>
</g>
</g>
<g id="clust2" class="cluster">
<title>clusterdir_85595cb542db97c92303133db6d9ba0a</title>
<g id="a_clust2"><a xlink:href="dir_85595cb542db97c92303133db6d9ba0a.html" target="_top">
<polygon fill="#edf0f7" stroke="#404040" stroke-width="2" points="45,-63 45,-153 113,-153 113,-63 45,-63"/>
</a>
</g>
</g>
<!-- dir_560694f03ee5bf1136d79e4f1ca1ca37 -->
<g id="node1" class="node">
<title>dir_560694f03ee5bf1136d79e4f1ca1ca37</title>
<g id="a_node1"><a xlink:href="dir_560694f03ee5bf1136d79e4f1ca1ca37.html" target="_top" xlink:title="types">
<polygon fill="#a2b4d6" stroke="red" points="60,-35 16,-35 16,-16 60,-16 60,-35"/>
<text text-anchor="middle" x="38" y="-23" font-family="Helvetica,sans-Serif" font-size="10.00">types</text>
</a>
</g>
</g>
<!-- dir_f5dd86dbd9583e7b6fc3983d3949da68 -->
<g id="node2" class="node">
<title>dir_f5dd86dbd9583e7b6fc3983d3949da68</title>
<g id="a_node2"><a xlink:href="dir_f5dd86dbd9583e7b6fc3983d3949da68.html" target="_top" xlink:title="algorithm">
<polygon fill="#a2b4d6" stroke="red" points="142,-35 78,-35 78,-16 142,-16 142,-35"/>
<text text-anchor="middle" x="110" y="-23" font-family="Helvetica,sans-Serif" font-size="10.00">algorithm</text>
</a>
</g>
</g>
<!-- dir_85595cb542db97c92303133db6d9ba0a -->
<g id="node3" class="node">
<title>dir_85595cb542db97c92303133db6d9ba0a</title>
<text text-anchor="middle" x="79" y="-133" font-family="Helvetica,sans-Serif" font-size="10.00">signal</text>
</g>
<!-- dir_ce9793416a06fc10dc2fdb3e3d7ba24b -->
<g id="node4" class="node">
<title>dir_ce9793416a06fc10dc2fdb3e3d7ba24b</title>
<g id="a_node4"><a xlink:href="dir_ce9793416a06fc10dc2fdb3e3d7ba24b.html" target="_top" xlink:title="include">
<polygon fill="#a2b4d6" stroke="#404040" points="105,-90 53,-90 53,-71 105,-71 105,-90"/>
<text text-anchor="middle" x="79" y="-78" font-family="Helvetica,sans-Serif" font-size="10.00">include</text>
</a>
</g>
</g>
<!-- dir_85595cb542db97c92303133db6d9ba0a&#45;&gt;dir_ce9793416a06fc10dc2fdb3e3d7ba24b -->
<g id="edge1" class="edge">
<title>dir_85595cb542db97c92303133db6d9ba0a&#45;&gt;dir_ce9793416a06fc10dc2fdb3e3d7ba24b</title>
<path fill="none" stroke="#63b8ff" d="M79,-125.75C79,-118.8 79,-108.85 79,-100.13"/>
<polygon fill="#63b8ff" stroke="#63b8ff" points="82.5,-100.09 79,-90.09 75.5,-100.09 82.5,-100.09"/>
<g id="a_edge1&#45;headlabel"><a xlink:href="dir_000009_000006.html" target="_top" xlink:title="2">
<text text-anchor="middle" x="85.34" y="-101.18" font-family="Helvetica,sans-Serif" font-size="10.00" fill="#63b8ff">2</text>
</a>
</g>
</g>
<!-- dir_ce9793416a06fc10dc2fdb3e3d7ba24b&#45;&gt;dir_560694f03ee5bf1136d79e4f1ca1ca37 -->
<g id="edge2" class="edge">
<title>dir_ce9793416a06fc10dc2fdb3e3d7ba24b&#45;&gt;dir_560694f03ee5bf1136d79e4f1ca1ca37</title>
<path fill="none" stroke="#63b8ff" d="M72.23,-70.75C66.44,-63.26 57.94,-52.28 50.86,-43.13"/>
<polygon fill="#63b8ff" stroke="#63b8ff" points="53.53,-40.86 44.64,-35.09 47.99,-45.14 53.53,-40.86"/>
<g id="a_edge2&#45;headlabel"><a xlink:href="dir_000006_000012.html" target="_top" xlink:title="3">
<text text-anchor="middle" x="57.98" y="-39.46" font-family="Helvetica,sans-Serif" font-size="10.00" fill="#63b8ff">3</text>
</a>
</g>
</g>
<!-- dir_ce9793416a06fc10dc2fdb3e3d7ba24b&#45;&gt;dir_f5dd86dbd9583e7b6fc3983d3949da68 -->
<g id="edge3" class="edge">
<title>dir_ce9793416a06fc10dc2fdb3e3d7ba24b&#45;&gt;dir_f5dd86dbd9583e7b6fc3983d3949da68</title>
<path fill="none" stroke="#63b8ff" d="M84.12,-70.75C88.36,-63.49 94.53,-52.95 99.78,-43.98"/>
<polygon fill="#63b8ff" stroke="#63b8ff" points="102.95,-45.49 104.98,-35.09 96.91,-41.95 102.95,-45.49"/>
<g id="a_edge3&#45;headlabel"><a xlink:href="dir_000006_000000.html" target="_top" xlink:title="1">
<text text-anchor="middle" x="103.58" y="-47.52" font-family="Helvetica,sans-Serif" font-size="10.00" fill="#63b8ff">1</text>
</a>
</g>
</g>
</g>
</svg>
