<?xml version="1.0" encoding="UTF-8" standalone="no"?>
<!DOCTYPE svg PUBLIC "-//W3C//DTD SVG 1.1//EN"
 "http://www.w3.org/Graphics/SVG/1.1/DTD/svg11.dtd">
<!-- Generated by graphviz version 2.43.0 (0)
 -->
<!-- Title: lib Pages: 1 -->
<svg width="134pt" height="169pt"
 viewBox="0.00 0.00 134.00 169.00" xmlns="http://www.w3.org/2000/svg" xmlns:xlink="http://www.w3.org/1999/xlink">
<g id="graph0" class="graph" transform="scale(1 1) rotate(0) translate(4 165)">
<title>lib</title>
<g id="clust1" class="cluster">
<title>clusterdir_97aefd0d527b934f1d99a682da8fe6a9</title>
<g id="a_clust1"><a xlink:href="dir_97aefd0d527b934f1d99a682da8fe6a9.html" target="_top">
<polygon fill="#edf0f7" stroke="#404040" stroke-width="2" points="8,-8 8,-153 118,-153 118,-8 8,-8"/>
</a>
</g>
</g>
<!-- dir_97aefd0d527b934f1d99a682da8fe6a9 -->
<g id="node1" class="node">
<title>dir_97aefd0d527b934f1d99a682da8fe6a9</title>
<text text-anchor="middle" x="95" y="-133" font-family="Helvetica,sans-Serif" font-size="10.00">lib</text>
</g>
<!-- dir_f5dd86dbd9583e7b6fc3983d3949da68 -->
<g id="node2" class="node">
<title>dir_f5dd86dbd9583e7b6fc3983d3949da68</title>
<g id="a_node2"><a xlink:href="dir_f5dd86dbd9583e7b6fc3983d3949da68.html" target="_top" xlink:title="algorithm">
<polygon fill="#a2b4d6" stroke="#404040" points="80,-90 16,-90 16,-71 80,-71 80,-90"/>
<text text-anchor="middle" x="48" y="-78" font-family="Helvetica,sans-Serif" font-size="10.00">algorithm</text>
</a>
</g>
</g>
<!-- dir_560694f03ee5bf1136d79e4f1ca1ca37 -->
<g id="node4" class="node">
<title>dir_560694f03ee5bf1136d79e4f1ca1ca37</title>
<g id="a_node4"><a xlink:href="dir_560694f03ee5bf1136d79e4f1ca1ca37.html" target="_top" xlink:title="types">
<polygon fill="#a2b4d6" stroke="#404040" points="70,-35 26,-35 26,-16 70,-16 70,-35"/>
<text text-anchor="middle" x="48" y="-23" font-family="Helvetica,sans-Serif" font-size="10.00">types</text>
</a>
</g>
</g>
<!-- dir_f5dd86dbd9583e7b6fc3983d3949da68&#45;&gt;dir_560694f03ee5bf1136d79e4f1ca1ca37 -->
<g id="edge1" class="edge">
<title>dir_f5dd86dbd9583e7b6fc3983d3949da68&#45;&gt;dir_560694f03ee5bf1136d79e4f1ca1ca37</title>
<path fill="none" stroke="#63b8ff" d="M42.83,-70.75C41.34,-63.8 40.9,-53.85 41.52,-45.13"/>
<polygon fill="#63b8ff" stroke="#63b8ff" points="45.01,-45.47 42.87,-35.09 38.07,-44.53 45.01,-45.47"/>
<g id="a_edge1&#45;headlabel"><a xlink:href="dir_000000_000012.html" target="_top" xlink:title="1">
<text text-anchor="middle" x="47.34" y="-46.91" font-family="Helvetica,sans-Serif" font-size="10.00" fill="#63b8ff">1</text>
</a>
</g>
</g>
<!-- dir_85595cb542db97c92303133db6d9ba0a -->
<g id="node3" class="node">
<title>dir_85595cb542db97c92303133db6d9ba0a</title>
<g id="a_node3"><a xlink:href="dir_85595cb542db97c92303133db6d9ba0a.html" target="_top" xlink:title="signal">
<polygon fill="#a2b4d6" stroke="#404040" points="62,-145 16,-145 16,-126 62,-126 62,-145"/>
<text text-anchor="middle" x="39" y="-133" font-family="Helvetica,sans-Serif" font-size="10.00">signal</text>
</a>
</g>
</g>
<!-- dir_85595cb542db97c92303133db6d9ba0a&#45;&gt;dir_f5dd86dbd9583e7b6fc3983d3949da68 -->
<g id="edge3" class="edge">
<title>dir_85595cb542db97c92303133db6d9ba0a&#45;&gt;dir_f5dd86dbd9583e7b6fc3983d3949da68</title>
<path fill="none" stroke="#63b8ff" d="M40.49,-125.75C41.67,-118.8 43.36,-108.85 44.84,-100.13"/>
<polygon fill="#63b8ff" stroke="#63b8ff" points="48.32,-100.53 46.54,-90.09 41.42,-99.36 48.32,-100.53"/>
<g id="a_edge3&#45;headlabel"><a xlink:href="dir_000009_000000.html" target="_top" xlink:title="1">
<text text-anchor="middle" x="50.52" y="-102.05" font-family="Helvetica,sans-Serif" font-size="10.00" fill="#63b8ff">1</text>
</a>
</g>
</g>
<!-- dir_85595cb542db97c92303133db6d9ba0a&#45;&gt;dir_560694f03ee5bf1136d79e4f1ca1ca37 -->
<g id="edge2" class="edge">
<title>dir_85595cb542db97c92303133db6d9ba0a&#45;&gt;dir_560694f03ee5bf1136d79e4f1ca1ca37</title>
<path fill="none" stroke="#63b8ff" d="M54.43,-125.8C66.35,-118.11 81.96,-105.69 89,-90 96.9,-72.39 82.18,-54.04 68.23,-41.63"/>
<polygon fill="#63b8ff" stroke="#63b8ff" points="70.22,-38.73 60.28,-35.05 65.75,-44.12 70.22,-38.73"/>
<g id="a_edge2&#45;headlabel"><a xlink:href="dir_000009_000012.html" target="_top" xlink:title="3">
<text text-anchor="middle" x="74.8" y="-36.33" font-family="Helvetica,sans-Serif" font-size="10.00" fill="#63b8ff">3</text>
</a>
</g>
</g>
<!-- dir_560694f03ee5bf1136d79e4f1ca1ca37&#45;&gt;dir_f5dd86dbd9583e7b6fc3983d3949da68 -->
<g id="edge4" class="edge">
<title>dir_560694f03ee5bf1136d79e4f1ca1ca37&#45;&gt;dir_f5dd86dbd9583e7b6fc3983d3949da68</title>
<path fill="none" stroke="#63b8ff" d="M53.13,-35.09C54.64,-41.99 55.09,-51.93 54.49,-60.66"/>
<polygon fill="#63b8ff" stroke="#63b8ff" points="51,-60.38 53.17,-70.75 57.94,-61.29 51,-60.38"/>
<g id="a_edge4&#45;headlabel"><a xlink:href="dir_000012_000000.html" target="_top" xlink:title="2">
<text text-anchor="middle" x="48.65" y="-53.94" font-family="Helvetica,sans-Serif" font-size="10.00" fill="#63b8ff">2</text>
</a>
</g>
</g>
</g>
</svg>
