<?xml version="1.0" encoding="UTF-8" standalone="no"?>
<!DOCTYPE svg PUBLIC "-//W3C//DTD SVG 1.1//EN"
 "http://www.w3.org/Graphics/SVG/1.1/DTD/svg11.dtd">
<!-- Generated by graphviz version 2.43.0 (0)
 -->
<!-- Title: lib/signal/include/calgopp/signal/IProcessor.h Pages: 1 -->
<svg width="160pt" height="170pt"
 viewBox="0.00 0.00 160.00 170.00" xmlns="http://www.w3.org/2000/svg" xmlns:xlink="http://www.w3.org/1999/xlink">
<g id="graph0" class="graph" transform="scale(1 1) rotate(0) translate(4 166)">
<title>lib/signal/include/calgopp/signal/IProcessor.h</title>
<!-- Node1 -->
<g id="node1" class="node">
<title>Node1</title>
<g id="a_node1"><a xlink:title=" ">
<polygon fill="#999999" stroke="#666666" points="152,-162 0,-162 0,-132 152,-132 152,-162"/>
<text text-anchor="start" x="8" y="-150" font-family="Helvetica,sans-Serif" font-size="10.00">lib/signal/include</text>
<text text-anchor="middle" x="76" y="-139" font-family="Helvetica,sans-Serif" font-size="10.00">/calgopp/signal/IProcessor.h</text>
</a>
</g>
</g>
<!-- Node2 -->
<g id="node2" class="node">
<title>Node2</title>
<g id="a_node2"><a xlink:href="Jacymirski_8h.html" target="_top" xlink:title=" ">
<polygon fill="white" stroke="#666666" points="146.5,-96 5.5,-96 5.5,-55 146.5,-55 146.5,-96"/>
<text text-anchor="start" x="13.5" y="-84" font-family="Helvetica,sans-Serif" font-size="10.00">lib/signal/include</text>
<text text-anchor="start" x="13.5" y="-73" font-family="Helvetica,sans-Serif" font-size="10.00">/calgopp/signal/transform</text>
<text text-anchor="middle" x="76" y="-62" font-family="Helvetica,sans-Serif" font-size="10.00">/Jacymirski.h</text>
</a>
</g>
</g>
<!-- Node1&#45;&gt;Node2 -->
<g id="edge1" class="edge">
<title>Node1&#45;&gt;Node2</title>
<path fill="none" stroke="#63b8ff" d="M76,-121.91C76,-113.47 76,-104.1 76,-96.07"/>
<polygon fill="#63b8ff" stroke="#63b8ff" points="72.5,-121.94 76,-131.94 79.5,-121.94 72.5,-121.94"/>
</g>
<!-- Node3 -->
<g id="node3" class="node">
<title>Node3</title>
<g id="a_node3"><a xlink:href="Jacymirski_8cpp.html" target="_top" xlink:title=" ">
<polygon fill="white" stroke="#666666" points="143.5,-19 8.5,-19 8.5,0 143.5,0 143.5,-19"/>
<text text-anchor="middle" x="76" y="-7" font-family="Helvetica,sans-Serif" font-size="10.00">lib/signal/Jacymirski.cpp</text>
</a>
</g>
</g>
<!-- Node2&#45;&gt;Node3 -->
<g id="edge2" class="edge">
<title>Node2&#45;&gt;Node3</title>
<path fill="none" stroke="#63b8ff" d="M76,-44.74C76,-35.45 76,-25.9 76,-19.26"/>
<polygon fill="#63b8ff" stroke="#63b8ff" points="72.5,-44.95 76,-54.95 79.5,-44.95 72.5,-44.95"/>
</g>
</g>
</svg>
