<?xml version="1.0" encoding="UTF-8" standalone="no"?>
<!DOCTYPE svg PUBLIC "-//W3C//DTD SVG 1.1//EN"
 "http://www.w3.org/Graphics/SVG/1.1/DTD/svg11.dtd">
<!-- Generated by graphviz version 2.43.0 (0)
 -->
<!-- Title: lib/signal/Jacymirski.cpp Pages: 1 -->
<svg width="382pt" height="313pt"
 viewBox="0.00 0.00 381.50 313.00" xmlns="http://www.w3.org/2000/svg" xmlns:xlink="http://www.w3.org/1999/xlink">
<g id="graph0" class="graph" transform="scale(1 1) rotate(0) translate(4 309)">
<title>lib/signal/Jacymirski.cpp</title>
<!-- Node1 -->
<g id="node1" class="node">
<title>Node1</title>
<g id="a_node1"><a xlink:title=" ">
<polygon fill="#999999" stroke="#666666" points="210.5,-305 75.5,-305 75.5,-286 210.5,-286 210.5,-305"/>
<text text-anchor="middle" x="143" y="-293" font-family="Helvetica,sans-Serif" font-size="10.00">lib/signal/Jacymirski.cpp</text>
</a>
</g>
</g>
<!-- Node2 -->
<g id="node2" class="node">
<title>Node2</title>
<g id="a_node2"><a xlink:href="Jacymirski_8h.html" target="_top" xlink:title=" ">
<polygon fill="white" stroke="#666666" points="212,-250 74,-250 74,-220 212,-220 212,-250"/>
<text text-anchor="start" x="82" y="-238" font-family="Helvetica,sans-Serif" font-size="10.00">calgopp/signal/transform</text>
<text text-anchor="middle" x="143" y="-227" font-family="Helvetica,sans-Serif" font-size="10.00">/Jacymirski.h</text>
</a>
</g>
</g>
<!-- Node1&#45;&gt;Node2 -->
<g id="edge1" class="edge">
<title>Node1&#45;&gt;Node2</title>
<path fill="none" stroke="#63b8ff" d="M143,-285.87C143,-279.11 143,-269.35 143,-260.26"/>
<polygon fill="#63b8ff" stroke="#63b8ff" points="146.5,-260.11 143,-250.11 139.5,-260.11 146.5,-260.11"/>
</g>
<!-- Node3 -->
<g id="node3" class="node">
<title>Node3</title>
<g id="a_node3"><a xlink:href="IProcessor_8h.html" target="_top" xlink:title=" ">
<polygon fill="white" stroke="#666666" points="217.5,-184 68.5,-184 68.5,-165 217.5,-165 217.5,-184"/>
<text text-anchor="middle" x="143" y="-172" font-family="Helvetica,sans-Serif" font-size="10.00">calgopp/signal/IProcessor.h</text>
</a>
</g>
</g>
<!-- Node2&#45;&gt;Node3 -->
<g id="edge2" class="edge">
<title>Node2&#45;&gt;Node3</title>
<path fill="none" stroke="#63b8ff" d="M143,-219.84C143,-212.21 143,-202.7 143,-194.45"/>
<polygon fill="#63b8ff" stroke="#63b8ff" points="146.5,-194.27 143,-184.27 139.5,-194.27 146.5,-194.27"/>
</g>
<!-- Node4 -->
<g id="node4" class="node">
<title>Node4</title>
<g id="a_node4"><a xlink:href="Signal_8h.html" target="_top" xlink:title=" ">
<polygon fill="white" stroke="#666666" points="207.5,-129 78.5,-129 78.5,-110 207.5,-110 207.5,-129"/>
<text text-anchor="middle" x="143" y="-117" font-family="Helvetica,sans-Serif" font-size="10.00">calgopp/signal/Signal.h</text>
</a>
</g>
</g>
<!-- Node3&#45;&gt;Node4 -->
<g id="edge3" class="edge">
<title>Node3&#45;&gt;Node4</title>
<path fill="none" stroke="#63b8ff" d="M143,-164.75C143,-157.8 143,-147.85 143,-139.13"/>
<polygon fill="#63b8ff" stroke="#63b8ff" points="146.5,-139.09 143,-129.09 139.5,-139.09 146.5,-139.09"/>
</g>
<!-- Node5 -->
<g id="node5" class="node">
<title>Node5</title>
<g id="a_node5"><a xlink:href="Point_8h.html" target="_top" xlink:title=" ">
<polygon fill="white" stroke="#666666" points="122,-19 0,-19 0,0 122,0 122,-19"/>
<text text-anchor="middle" x="61" y="-7" font-family="Helvetica,sans-Serif" font-size="10.00">calgopp/types/Point.h</text>
</a>
</g>
</g>
<!-- Node4&#45;&gt;Node5 -->
<g id="edge4" class="edge">
<title>Node4&#45;&gt;Node5</title>
<path fill="none" stroke="#63b8ff" d="M85.43,-109.99C64.05,-103.73 41.88,-92.86 29,-74 18.62,-58.81 31.18,-39.78 43.48,-26.53"/>
<polygon fill="#63b8ff" stroke="#63b8ff" points="46.3,-28.66 50.9,-19.12 41.35,-23.71 46.3,-28.66"/>
</g>
<!-- Node6 -->
<g id="node6" class="node">
<title>Node6</title>
<g id="a_node6"><a xlink:href="Peak_8h.html" target="_top" xlink:title=" ">
<polygon fill="white" stroke="#666666" points="159.5,-74 38.5,-74 38.5,-55 159.5,-55 159.5,-74"/>
<text text-anchor="middle" x="99" y="-62" font-family="Helvetica,sans-Serif" font-size="10.00">calgopp/types/Peak.h</text>
</a>
</g>
</g>
<!-- Node4&#45;&gt;Node6 -->
<g id="edge5" class="edge">
<title>Node4&#45;&gt;Node6</title>
<path fill="none" stroke="#63b8ff" d="M135.73,-109.75C129.46,-102.18 120.21,-91.05 112.57,-81.84"/>
<polygon fill="#63b8ff" stroke="#63b8ff" points="115.21,-79.55 106.13,-74.09 109.83,-84.02 115.21,-79.55"/>
</g>
<!-- Node7 -->
<g id="node7" class="node">
<title>Node7</title>
<g id="a_node7"><a xlink:href="Container_8h.html" target="_top" xlink:title=" ">
<polygon fill="white" stroke="#666666" points="296.5,-19 153.5,-19 153.5,0 296.5,0 296.5,-19"/>
<text text-anchor="middle" x="225" y="-7" font-family="Helvetica,sans-Serif" font-size="10.00">calgopp/types/Container.h</text>
</a>
</g>
</g>
<!-- Node4&#45;&gt;Node7 -->
<g id="edge7" class="edge">
<title>Node4&#45;&gt;Node7</title>
<path fill="none" stroke="#63b8ff" d="M149.71,-109.66C163.35,-91.69 194.52,-50.64 212.18,-27.38"/>
<polygon fill="#63b8ff" stroke="#63b8ff" points="215.17,-29.24 218.43,-19.16 209.59,-25.01 215.17,-29.24"/>
</g>
<!-- Node8 -->
<g id="node8" class="node">
<title>Node8</title>
<g id="a_node8"><a xlink:href="numeric_8h.html" target="_top" xlink:title=" ">
<polygon fill="white" stroke="#666666" points="373.5,-74 216.5,-74 216.5,-55 373.5,-55 373.5,-74"/>
<text text-anchor="middle" x="295" y="-62" font-family="Helvetica,sans-Serif" font-size="10.00">calgopp/algorithm/numeric.h</text>
</a>
</g>
</g>
<!-- Node4&#45;&gt;Node8 -->
<g id="edge8" class="edge">
<title>Node4&#45;&gt;Node8</title>
<path fill="none" stroke="#63b8ff" d="M167.42,-109.98C192.72,-101.16 232.45,-87.31 260.86,-77.41"/>
<polygon fill="#63b8ff" stroke="#63b8ff" points="262.1,-80.68 270.39,-74.08 259.79,-74.07 262.1,-80.68"/>
</g>
<!-- Node6&#45;&gt;Node5 -->
<g id="edge6" class="edge">
<title>Node6&#45;&gt;Node5</title>
<path fill="none" stroke="#63b8ff" d="M92.73,-54.75C87.41,-47.34 79.64,-36.5 73.12,-27.41"/>
<polygon fill="#63b8ff" stroke="#63b8ff" points="75.83,-25.18 67.16,-19.09 70.14,-29.26 75.83,-25.18"/>
</g>
<!-- Node8&#45;&gt;Node7 -->
<g id="edge9" class="edge">
<title>Node8&#45;&gt;Node7</title>
<path fill="none" stroke="#63b8ff" d="M283.75,-54.98C273.2,-47 257.2,-34.88 244.56,-25.31"/>
<polygon fill="#63b8ff" stroke="#63b8ff" points="246.54,-22.42 236.45,-19.17 242.31,-28 246.54,-22.42"/>
</g>
</g>
</svg>
