<?xml version="1.0" encoding="UTF-8" standalone="no"?>
<!DOCTYPE svg PUBLIC "-//W3C//DTD SVG 1.1//EN"
 "http://www.w3.org/Graphics/SVG/1.1/DTD/svg11.dtd">
<!-- Generated by graphviz version 2.43.0 (0)
 -->
<!-- Title: lib/algorithm/include/calgopp/algorithm/numeric.h Pages: 1 -->
<svg width="456pt" height="302pt"
 viewBox="0.00 0.00 455.50 302.00" xmlns="http://www.w3.org/2000/svg" xmlns:xlink="http://www.w3.org/1999/xlink">
<g id="graph0" class="graph" transform="scale(1 1) rotate(0) translate(4 298)">
<title>lib/algorithm/include/calgopp/algorithm/numeric.h</title>
<!-- Node1 -->
<g id="node1" class="node">
<title>Node1</title>
<g id="a_node1"><a xlink:title=" ">
<polygon fill="#999999" stroke="#666666" points="349,-294 189,-294 189,-264 349,-264 349,-294"/>
<text text-anchor="start" x="197" y="-282" font-family="Helvetica,sans-Serif" font-size="10.00">lib/algorithm/include</text>
<text text-anchor="middle" x="269" y="-271" font-family="Helvetica,sans-Serif" font-size="10.00">/calgopp/algorithm/numeric.h</text>
</a>
</g>
</g>
<!-- Node2 -->
<g id="node2" class="node">
<title>Node2</title>
<g id="a_node2"><a xlink:href="Signal_8h.html" target="_top" xlink:title=" ">
<polygon fill="white" stroke="#666666" points="198,-228 66,-228 66,-198 198,-198 198,-228"/>
<text text-anchor="start" x="74" y="-216" font-family="Helvetica,sans-Serif" font-size="10.00">lib/signal/include</text>
<text text-anchor="middle" x="132" y="-205" font-family="Helvetica,sans-Serif" font-size="10.00">/calgopp/signal/Signal.h</text>
</a>
</g>
</g>
<!-- Node1&#45;&gt;Node2 -->
<g id="edge1" class="edge">
<title>Node1&#45;&gt;Node2</title>
<path fill="none" stroke="#63b8ff" d="M229.72,-259.65C208.17,-249.58 181.88,-237.3 162,-228.01"/>
<polygon fill="#63b8ff" stroke="#63b8ff" points="228.39,-262.89 238.93,-263.95 231.36,-256.55 228.39,-262.89"/>
</g>
<!-- Node7 -->
<g id="node7" class="node">
<title>Node7</title>
<g id="a_node7"><a xlink:href="Peak_8cpp.html" target="_top" xlink:title=" ">
<polygon fill="white" stroke="#666666" points="322,-222.5 216,-222.5 216,-203.5 322,-203.5 322,-222.5"/>
<text text-anchor="middle" x="269" y="-210.5" font-family="Helvetica,sans-Serif" font-size="10.00">lib/types/Peak.cpp</text>
</a>
</g>
</g>
<!-- Node1&#45;&gt;Node7 -->
<g id="edge6" class="edge">
<title>Node1&#45;&gt;Node7</title>
<path fill="none" stroke="#63b8ff" d="M269,-253.6C269,-242.8 269,-230.78 269,-222.84"/>
<polygon fill="#63b8ff" stroke="#63b8ff" points="265.5,-253.8 269,-263.8 272.5,-253.8 265.5,-253.8"/>
</g>
<!-- Node8 -->
<g id="node8" class="node">
<title>Node8</title>
<g id="a_node8"><a xlink:href="Point_8cpp.html" target="_top" xlink:title=" ">
<polygon fill="white" stroke="#666666" points="447.5,-222.5 340.5,-222.5 340.5,-203.5 447.5,-203.5 447.5,-222.5"/>
<text text-anchor="middle" x="394" y="-210.5" font-family="Helvetica,sans-Serif" font-size="10.00">lib/types/Point.cpp</text>
</a>
</g>
</g>
<!-- Node1&#45;&gt;Node8 -->
<g id="edge7" class="edge">
<title>Node1&#45;&gt;Node8</title>
<path fill="none" stroke="#63b8ff" d="M305.53,-259.3C329.28,-247.14 359.12,-231.86 377.36,-222.52"/>
<polygon fill="#63b8ff" stroke="#63b8ff" points="303.74,-256.28 296.43,-263.95 306.93,-262.51 303.74,-256.28"/>
</g>
<!-- Node3 -->
<g id="node3" class="node">
<title>Node3</title>
<g id="a_node3"><a xlink:href="Signal_8cpp.html" target="_top" xlink:title=" ">
<polygon fill="white" stroke="#666666" points="114,-156.5 0,-156.5 0,-137.5 114,-137.5 114,-156.5"/>
<text text-anchor="middle" x="57" y="-144.5" font-family="Helvetica,sans-Serif" font-size="10.00">lib/signal/Signal.cpp</text>
</a>
</g>
</g>
<!-- Node2&#45;&gt;Node3 -->
<g id="edge2" class="edge">
<title>Node2&#45;&gt;Node3</title>
<path fill="none" stroke="#63b8ff" d="M107.69,-191.26C94.05,-179.61 77.73,-165.69 67.36,-156.84"/>
<polygon fill="#63b8ff" stroke="#63b8ff" points="105.48,-193.97 115.36,-197.8 110.02,-188.64 105.48,-193.97"/>
</g>
<!-- Node4 -->
<g id="node4" class="node">
<title>Node4</title>
<g id="a_node4"><a xlink:href="IProcessor_8h.html" target="_top" xlink:title=" ">
<polygon fill="white" stroke="#666666" points="284,-162 132,-162 132,-132 284,-132 284,-162"/>
<text text-anchor="start" x="140" y="-150" font-family="Helvetica,sans-Serif" font-size="10.00">lib/signal/include</text>
<text text-anchor="middle" x="208" y="-139" font-family="Helvetica,sans-Serif" font-size="10.00">/calgopp/signal/IProcessor.h</text>
</a>
</g>
</g>
<!-- Node2&#45;&gt;Node4 -->
<g id="edge3" class="edge">
<title>Node2&#45;&gt;Node4</title>
<path fill="none" stroke="#63b8ff" d="M156.7,-191.2C167.98,-181.7 181.05,-170.69 191.18,-162.16"/>
<polygon fill="#63b8ff" stroke="#63b8ff" points="154.26,-188.68 148.87,-197.8 158.77,-194.03 154.26,-188.68"/>
</g>
<!-- Node5 -->
<g id="node5" class="node">
<title>Node5</title>
<g id="a_node5"><a xlink:href="Jacymirski_8h.html" target="_top" xlink:title=" ">
<polygon fill="white" stroke="#666666" points="278.5,-96 137.5,-96 137.5,-55 278.5,-55 278.5,-96"/>
<text text-anchor="start" x="145.5" y="-84" font-family="Helvetica,sans-Serif" font-size="10.00">lib/signal/include</text>
<text text-anchor="start" x="145.5" y="-73" font-family="Helvetica,sans-Serif" font-size="10.00">/calgopp/signal/transform</text>
<text text-anchor="middle" x="208" y="-62" font-family="Helvetica,sans-Serif" font-size="10.00">/Jacymirski.h</text>
</a>
</g>
</g>
<!-- Node4&#45;&gt;Node5 -->
<g id="edge4" class="edge">
<title>Node4&#45;&gt;Node5</title>
<path fill="none" stroke="#63b8ff" d="M208,-121.91C208,-113.47 208,-104.1 208,-96.07"/>
<polygon fill="#63b8ff" stroke="#63b8ff" points="204.5,-121.94 208,-131.94 211.5,-121.94 204.5,-121.94"/>
</g>
<!-- Node6 -->
<g id="node6" class="node">
<title>Node6</title>
<g id="a_node6"><a xlink:href="Jacymirski_8cpp.html" target="_top" xlink:title=" ">
<polygon fill="white" stroke="#666666" points="275.5,-19 140.5,-19 140.5,0 275.5,0 275.5,-19"/>
<text text-anchor="middle" x="208" y="-7" font-family="Helvetica,sans-Serif" font-size="10.00">lib/signal/Jacymirski.cpp</text>
</a>
</g>
</g>
<!-- Node5&#45;&gt;Node6 -->
<g id="edge5" class="edge">
<title>Node5&#45;&gt;Node6</title>
<path fill="none" stroke="#63b8ff" d="M208,-44.74C208,-35.45 208,-25.9 208,-19.26"/>
<polygon fill="#63b8ff" stroke="#63b8ff" points="204.5,-44.95 208,-54.95 211.5,-44.95 204.5,-44.95"/>
</g>
</g>
</svg>
