<?xml version="1.0" encoding="UTF-8" standalone="no"?>
<!DOCTYPE svg PUBLIC "-//W3C//DTD SVG 1.1//EN"
 "http://www.w3.org/Graphics/SVG/1.1/DTD/svg11.dtd">
<!-- Generated by graphviz version 2.43.0 (0)
 -->
<!-- Title: lib/types/include/calgopp/types/Peak.h Pages: 1 -->
<svg width="325pt" height="170pt"
 viewBox="0.00 0.00 325.00 170.00" xmlns="http://www.w3.org/2000/svg" xmlns:xlink="http://www.w3.org/1999/xlink">
<g id="graph0" class="graph" transform="scale(1 1) rotate(0) translate(4 166)">
<title>lib/types/include/calgopp/types/Peak.h</title>
<!-- Node1 -->
<g id="node1" class="node">
<title>Node1</title>
<g id="a_node1"><a xlink:title=" ">
<polygon fill="#999999" stroke="#666666" points="264,-162 126,-162 126,-132 264,-132 264,-162"/>
<text text-anchor="start" x="134" y="-150" font-family="Helvetica,sans-Serif" font-size="10.00">lib/types/include/calgopp</text>
<text text-anchor="middle" x="195" y="-139" font-family="Helvetica,sans-Serif" font-size="10.00">/types/Peak.h</text>
</a>
</g>
</g>
<!-- Node2 -->
<g id="node2" class="node">
<title>Node2</title>
<g id="a_node2"><a xlink:href="Signal_8h.html" target="_top" xlink:title=" ">
<polygon fill="white" stroke="#666666" points="193,-96 61,-96 61,-66 193,-66 193,-96"/>
<text text-anchor="start" x="69" y="-84" font-family="Helvetica,sans-Serif" font-size="10.00">lib/signal/include</text>
<text text-anchor="middle" x="127" y="-73" font-family="Helvetica,sans-Serif" font-size="10.00">/calgopp/signal/Signal.h</text>
</a>
</g>
</g>
<!-- Node1&#45;&gt;Node2 -->
<g id="edge1" class="edge">
<title>Node1&#45;&gt;Node2</title>
<path fill="none" stroke="#63b8ff" d="M172.61,-124.92C162.58,-115.49 151.02,-104.61 142.05,-96.16"/>
<polygon fill="#63b8ff" stroke="#63b8ff" points="170.23,-127.49 179.91,-131.8 175.03,-122.39 170.23,-127.49"/>
</g>
<!-- Node5 -->
<g id="node5" class="node">
<title>Node5</title>
<g id="a_node5"><a xlink:href="Peak_8cpp.html" target="_top" xlink:title=" ">
<polygon fill="white" stroke="#666666" points="317,-90.5 211,-90.5 211,-71.5 317,-71.5 317,-90.5"/>
<text text-anchor="middle" x="264" y="-78.5" font-family="Helvetica,sans-Serif" font-size="10.00">lib/types/Peak.cpp</text>
</a>
</g>
</g>
<!-- Node1&#45;&gt;Node5 -->
<g id="edge4" class="edge">
<title>Node1&#45;&gt;Node5</title>
<path fill="none" stroke="#63b8ff" d="M217.71,-124.93C230.2,-113.35 245.02,-99.61 254.46,-90.84"/>
<polygon fill="#63b8ff" stroke="#63b8ff" points="215.26,-122.43 210.31,-131.8 220.03,-127.56 215.26,-122.43"/>
</g>
<!-- Node3 -->
<g id="node3" class="node">
<title>Node3</title>
<g id="a_node3"><a xlink:href="Signal_8cpp.html" target="_top" xlink:title=" ">
<polygon fill="white" stroke="#666666" points="114,-24.5 0,-24.5 0,-5.5 114,-5.5 114,-24.5"/>
<text text-anchor="middle" x="57" y="-12.5" font-family="Helvetica,sans-Serif" font-size="10.00">lib/signal/Signal.cpp</text>
</a>
</g>
</g>
<!-- Node2&#45;&gt;Node3 -->
<g id="edge2" class="edge">
<title>Node2&#45;&gt;Node3</title>
<path fill="none" stroke="#63b8ff" d="M103.96,-58.93C91.29,-47.35 76.26,-33.61 66.67,-24.84"/>
<polygon fill="#63b8ff" stroke="#63b8ff" points="101.72,-61.63 111.46,-65.8 106.45,-56.47 101.72,-61.63"/>
</g>
<!-- Node4 -->
<g id="node4" class="node">
<title>Node4</title>
<g id="a_node4"><a xlink:href="IFilter_8h.html" target="_top" xlink:title=" ">
<polygon fill="white" stroke="#666666" points="261.5,-30 132.5,-30 132.5,0 261.5,0 261.5,-30"/>
<text text-anchor="start" x="140.5" y="-18" font-family="Helvetica,sans-Serif" font-size="10.00">lib/signal/include</text>
<text text-anchor="middle" x="197" y="-7" font-family="Helvetica,sans-Serif" font-size="10.00">/calgopp/signal/IFilter.h</text>
</a>
</g>
</g>
<!-- Node2&#45;&gt;Node4 -->
<g id="edge3" class="edge">
<title>Node2&#45;&gt;Node4</title>
<path fill="none" stroke="#63b8ff" d="M150.05,-58.92C160.37,-49.49 172.27,-38.61 181.51,-30.16"/>
<polygon fill="#63b8ff" stroke="#63b8ff" points="147.55,-56.47 142.54,-65.8 152.28,-61.63 147.55,-56.47"/>
</g>
</g>
</svg>
