<?xml version="1.0" encoding="UTF-8" standalone="no"?>
<!DOCTYPE svg PUBLIC "-//W3C//DTD SVG 1.1//EN"
 "http://www.w3.org/Graphics/SVG/1.1/DTD/svg11.dtd">
<!-- Generated by graphviz version 2.43.0 (0)
 -->
<!-- Title: lib/types/include/calgopp/types/Point.h Pages: 1 -->
<svg width="384pt" height="236pt"
 viewBox="0.00 0.00 384.00 236.00" xmlns="http://www.w3.org/2000/svg" xmlns:xlink="http://www.w3.org/1999/xlink">
<g id="graph0" class="graph" transform="scale(1 1) rotate(0) translate(4 232)">
<title>lib/types/include/calgopp/types/Point.h</title>
<!-- Node1 -->
<g id="node1" class="node">
<title>Node1</title>
<g id="a_node1"><a xlink:title=" ">
<polygon fill="#999999" stroke="#666666" points="235,-228 97,-228 97,-198 235,-198 235,-228"/>
<text text-anchor="start" x="105" y="-216" font-family="Helvetica,sans-Serif" font-size="10.00">lib/types/include/calgopp</text>
<text text-anchor="middle" x="166" y="-205" font-family="Helvetica,sans-Serif" font-size="10.00">/types/Point.h</text>
</a>
</g>
</g>
<!-- Node2 -->
<g id="node2" class="node">
<title>Node2</title>
<g id="a_node2"><a xlink:href="Signal_8h.html" target="_top" xlink:title=" ">
<polygon fill="white" stroke="#666666" points="193,-96 61,-96 61,-66 193,-66 193,-96"/>
<text text-anchor="start" x="69" y="-84" font-family="Helvetica,sans-Serif" font-size="10.00">lib/signal/include</text>
<text text-anchor="middle" x="127" y="-73" font-family="Helvetica,sans-Serif" font-size="10.00">/calgopp/signal/Signal.h</text>
</a>
</g>
</g>
<!-- Node1&#45;&gt;Node2 -->
<g id="edge1" class="edge">
<title>Node1&#45;&gt;Node2</title>
<path fill="none" stroke="#63b8ff" d="M129.85,-192.03C119.2,-184.18 108.85,-174.1 103,-162 92.4,-140.06 106.05,-112.47 116.69,-96.08"/>
<polygon fill="#63b8ff" stroke="#63b8ff" points="128.15,-195.1 138.38,-197.85 132.09,-189.32 128.15,-195.1"/>
</g>
<!-- Node5 -->
<g id="node5" class="node">
<title>Node5</title>
<g id="a_node5"><a xlink:href="Point_8cpp.html" target="_top" xlink:title=" ">
<polygon fill="white" stroke="#666666" points="219.5,-156.5 112.5,-156.5 112.5,-137.5 219.5,-137.5 219.5,-156.5"/>
<text text-anchor="middle" x="166" y="-144.5" font-family="Helvetica,sans-Serif" font-size="10.00">lib/types/Point.cpp</text>
</a>
</g>
</g>
<!-- Node1&#45;&gt;Node5 -->
<g id="edge4" class="edge">
<title>Node1&#45;&gt;Node5</title>
<path fill="none" stroke="#63b8ff" d="M166,-187.6C166,-176.8 166,-164.78 166,-156.84"/>
<polygon fill="#63b8ff" stroke="#63b8ff" points="162.5,-187.8 166,-197.8 169.5,-187.8 162.5,-187.8"/>
</g>
<!-- Node6 -->
<g id="node6" class="node">
<title>Node6</title>
<g id="a_node6"><a xlink:href="Peak_8h.html" target="_top" xlink:title=" ">
<polygon fill="white" stroke="#666666" points="376,-162 238,-162 238,-132 376,-132 376,-162"/>
<text text-anchor="start" x="246" y="-150" font-family="Helvetica,sans-Serif" font-size="10.00">lib/types/include/calgopp</text>
<text text-anchor="middle" x="307" y="-139" font-family="Helvetica,sans-Serif" font-size="10.00">/types/Peak.h</text>
</a>
</g>
</g>
<!-- Node1&#45;&gt;Node6 -->
<g id="edge5" class="edge">
<title>Node1&#45;&gt;Node6</title>
<path fill="none" stroke="#63b8ff" d="M206.13,-193.78C228.36,-183.69 255.57,-171.34 276.13,-162.01"/>
<polygon fill="#63b8ff" stroke="#63b8ff" points="204.6,-190.63 196.94,-197.95 207.5,-197.01 204.6,-190.63"/>
</g>
<!-- Node3 -->
<g id="node3" class="node">
<title>Node3</title>
<g id="a_node3"><a xlink:href="Signal_8cpp.html" target="_top" xlink:title=" ">
<polygon fill="white" stroke="#666666" points="114,-24.5 0,-24.5 0,-5.5 114,-5.5 114,-24.5"/>
<text text-anchor="middle" x="57" y="-12.5" font-family="Helvetica,sans-Serif" font-size="10.00">lib/signal/Signal.cpp</text>
</a>
</g>
</g>
<!-- Node2&#45;&gt;Node3 -->
<g id="edge2" class="edge">
<title>Node2&#45;&gt;Node3</title>
<path fill="none" stroke="#63b8ff" d="M103.96,-58.93C91.29,-47.35 76.26,-33.61 66.67,-24.84"/>
<polygon fill="#63b8ff" stroke="#63b8ff" points="101.72,-61.63 111.46,-65.8 106.45,-56.47 101.72,-61.63"/>
</g>
<!-- Node4 -->
<g id="node4" class="node">
<title>Node4</title>
<g id="a_node4"><a xlink:href="IFilter_8h.html" target="_top" xlink:title=" ">
<polygon fill="white" stroke="#666666" points="261.5,-30 132.5,-30 132.5,0 261.5,0 261.5,-30"/>
<text text-anchor="start" x="140.5" y="-18" font-family="Helvetica,sans-Serif" font-size="10.00">lib/signal/include</text>
<text text-anchor="middle" x="197" y="-7" font-family="Helvetica,sans-Serif" font-size="10.00">/calgopp/signal/IFilter.h</text>
</a>
</g>
</g>
<!-- Node2&#45;&gt;Node4 -->
<g id="edge3" class="edge">
<title>Node2&#45;&gt;Node4</title>
<path fill="none" stroke="#63b8ff" d="M150.05,-58.92C160.37,-49.49 172.27,-38.61 181.51,-30.16"/>
<polygon fill="#63b8ff" stroke="#63b8ff" points="147.55,-56.47 142.54,-65.8 152.28,-61.63 147.55,-56.47"/>
</g>
<!-- Node6&#45;&gt;Node2 -->
<g id="edge6" class="edge">
<title>Node6&#45;&gt;Node2</title>
<path fill="none" stroke="#63b8ff" d="M258.03,-128.59C229.26,-118.36 193.35,-105.59 166.41,-96.01"/>
<polygon fill="#63b8ff" stroke="#63b8ff" points="256.9,-131.9 267.5,-131.95 259.25,-125.31 256.9,-131.9"/>
</g>
<!-- Node7 -->
<g id="node7" class="node">
<title>Node7</title>
<g id="a_node7"><a xlink:href="Peak_8cpp.html" target="_top" xlink:title=" ">
<polygon fill="white" stroke="#666666" points="360,-90.5 254,-90.5 254,-71.5 360,-71.5 360,-90.5"/>
<text text-anchor="middle" x="307" y="-78.5" font-family="Helvetica,sans-Serif" font-size="10.00">lib/types/Peak.cpp</text>
</a>
</g>
</g>
<!-- Node6&#45;&gt;Node7 -->
<g id="edge7" class="edge">
<title>Node6&#45;&gt;Node7</title>
<path fill="none" stroke="#63b8ff" d="M307,-121.6C307,-110.8 307,-98.78 307,-90.84"/>
<polygon fill="#63b8ff" stroke="#63b8ff" points="303.5,-121.8 307,-131.8 310.5,-121.8 303.5,-121.8"/>
</g>
</g>
</svg>
