<?xml version="1.0" encoding="UTF-8" standalone="no"?>
<!DOCTYPE svg PUBLIC "-//W3C//DTD SVG 1.1//EN"
 "http://www.w3.org/Graphics/SVG/1.1/DTD/svg11.dtd">
<!-- Generated by graphviz version 2.43.0 (0)
 -->
<!-- Title: lib/types/include/calgopp/types/Point.h Pages: 1 -->
<svg width="389pt" height="368pt"
 viewBox="0.00 0.00 389.00 368.00" xmlns="http://www.w3.org/2000/svg" xmlns:xlink="http://www.w3.org/1999/xlink">
<g id="graph0" class="graph" transform="scale(1 1) rotate(0) translate(4 364)">
<title>lib/types/include/calgopp/types/Point.h</title>
<!-- Node1 -->
<g id="node1" class="node">
<title>Node1</title>
<g id="a_node1"><a xlink:title=" ">
<polygon fill="#999999" stroke="#666666" points="240,-360 102,-360 102,-330 240,-330 240,-360"/>
<text text-anchor="start" x="110" y="-348" font-family="Helvetica,sans-Serif" font-size="10.00">lib/types/include/calgopp</text>
<text text-anchor="middle" x="171" y="-337" font-family="Helvetica,sans-Serif" font-size="10.00">/types/Point.h</text>
</a>
</g>
</g>
<!-- Node2 -->
<g id="node2" class="node">
<title>Node2</title>
<g id="a_node2"><a xlink:href="Signal_8h.html" target="_top" xlink:title=" ">
<polygon fill="white" stroke="#666666" points="198,-228 66,-228 66,-198 198,-198 198,-228"/>
<text text-anchor="start" x="74" y="-216" font-family="Helvetica,sans-Serif" font-size="10.00">lib/signal/include</text>
<text text-anchor="middle" x="132" y="-205" font-family="Helvetica,sans-Serif" font-size="10.00">/calgopp/signal/Signal.h</text>
</a>
</g>
</g>
<!-- Node1&#45;&gt;Node2 -->
<g id="edge1" class="edge">
<title>Node1&#45;&gt;Node2</title>
<path fill="none" stroke="#63b8ff" d="M134.85,-324.03C124.2,-316.18 113.85,-306.1 108,-294 97.4,-272.06 111.05,-244.47 121.69,-228.08"/>
<polygon fill="#63b8ff" stroke="#63b8ff" points="133.15,-327.1 143.38,-329.85 137.09,-321.32 133.15,-327.1"/>
</g>
<!-- Node7 -->
<g id="node7" class="node">
<title>Node7</title>
<g id="a_node7"><a xlink:href="Point_8cpp.html" target="_top" xlink:title=" ">
<polygon fill="white" stroke="#666666" points="224.5,-288.5 117.5,-288.5 117.5,-269.5 224.5,-269.5 224.5,-288.5"/>
<text text-anchor="middle" x="171" y="-276.5" font-family="Helvetica,sans-Serif" font-size="10.00">lib/types/Point.cpp</text>
</a>
</g>
</g>
<!-- Node1&#45;&gt;Node7 -->
<g id="edge6" class="edge">
<title>Node1&#45;&gt;Node7</title>
<path fill="none" stroke="#63b8ff" d="M171,-319.6C171,-308.8 171,-296.78 171,-288.84"/>
<polygon fill="#63b8ff" stroke="#63b8ff" points="167.5,-319.8 171,-329.8 174.5,-319.8 167.5,-319.8"/>
</g>
<!-- Node8 -->
<g id="node8" class="node">
<title>Node8</title>
<g id="a_node8"><a xlink:href="Peak_8h.html" target="_top" xlink:title=" ">
<polygon fill="white" stroke="#666666" points="381,-294 243,-294 243,-264 381,-264 381,-294"/>
<text text-anchor="start" x="251" y="-282" font-family="Helvetica,sans-Serif" font-size="10.00">lib/types/include/calgopp</text>
<text text-anchor="middle" x="312" y="-271" font-family="Helvetica,sans-Serif" font-size="10.00">/types/Peak.h</text>
</a>
</g>
</g>
<!-- Node1&#45;&gt;Node8 -->
<g id="edge7" class="edge">
<title>Node1&#45;&gt;Node8</title>
<path fill="none" stroke="#63b8ff" d="M211.13,-325.78C233.36,-315.69 260.57,-303.34 281.13,-294.01"/>
<polygon fill="#63b8ff" stroke="#63b8ff" points="209.6,-322.63 201.94,-329.95 212.5,-329.01 209.6,-322.63"/>
</g>
<!-- Node3 -->
<g id="node3" class="node">
<title>Node3</title>
<g id="a_node3"><a xlink:href="Signal_8cpp.html" target="_top" xlink:title=" ">
<polygon fill="white" stroke="#666666" points="114,-156.5 0,-156.5 0,-137.5 114,-137.5 114,-156.5"/>
<text text-anchor="middle" x="57" y="-144.5" font-family="Helvetica,sans-Serif" font-size="10.00">lib/signal/Signal.cpp</text>
</a>
</g>
</g>
<!-- Node2&#45;&gt;Node3 -->
<g id="edge2" class="edge">
<title>Node2&#45;&gt;Node3</title>
<path fill="none" stroke="#63b8ff" d="M107.69,-191.26C94.05,-179.61 77.73,-165.69 67.36,-156.84"/>
<polygon fill="#63b8ff" stroke="#63b8ff" points="105.48,-193.97 115.36,-197.8 110.02,-188.64 105.48,-193.97"/>
</g>
<!-- Node4 -->
<g id="node4" class="node">
<title>Node4</title>
<g id="a_node4"><a xlink:href="IProcessor_8h.html" target="_top" xlink:title=" ">
<polygon fill="white" stroke="#666666" points="284,-162 132,-162 132,-132 284,-132 284,-162"/>
<text text-anchor="start" x="140" y="-150" font-family="Helvetica,sans-Serif" font-size="10.00">lib/signal/include</text>
<text text-anchor="middle" x="208" y="-139" font-family="Helvetica,sans-Serif" font-size="10.00">/calgopp/signal/IProcessor.h</text>
</a>
</g>
</g>
<!-- Node2&#45;&gt;Node4 -->
<g id="edge3" class="edge">
<title>Node2&#45;&gt;Node4</title>
<path fill="none" stroke="#63b8ff" d="M156.7,-191.2C167.98,-181.7 181.05,-170.69 191.18,-162.16"/>
<polygon fill="#63b8ff" stroke="#63b8ff" points="154.26,-188.68 148.87,-197.8 158.77,-194.03 154.26,-188.68"/>
</g>
<!-- Node5 -->
<g id="node5" class="node">
<title>Node5</title>
<g id="a_node5"><a xlink:href="Jacymirski_8h.html" target="_top" xlink:title=" ">
<polygon fill="white" stroke="#666666" points="278.5,-96 137.5,-96 137.5,-55 278.5,-55 278.5,-96"/>
<text text-anchor="start" x="145.5" y="-84" font-family="Helvetica,sans-Serif" font-size="10.00">lib/signal/include</text>
<text text-anchor="start" x="145.5" y="-73" font-family="Helvetica,sans-Serif" font-size="10.00">/calgopp/signal/transform</text>
<text text-anchor="middle" x="208" y="-62" font-family="Helvetica,sans-Serif" font-size="10.00">/Jacymirski.h</text>
</a>
</g>
</g>
<!-- Node4&#45;&gt;Node5 -->
<g id="edge4" class="edge">
<title>Node4&#45;&gt;Node5</title>
<path fill="none" stroke="#63b8ff" d="M208,-121.91C208,-113.47 208,-104.1 208,-96.07"/>
<polygon fill="#63b8ff" stroke="#63b8ff" points="204.5,-121.94 208,-131.94 211.5,-121.94 204.5,-121.94"/>
</g>
<!-- Node6 -->
<g id="node6" class="node">
<title>Node6</title>
<g id="a_node6"><a xlink:href="Jacymirski_8cpp.html" target="_top" xlink:title=" ">
<polygon fill="white" stroke="#666666" points="275.5,-19 140.5,-19 140.5,0 275.5,0 275.5,-19"/>
<text text-anchor="middle" x="208" y="-7" font-family="Helvetica,sans-Serif" font-size="10.00">lib/signal/Jacymirski.cpp</text>
</a>
</g>
</g>
<!-- Node5&#45;&gt;Node6 -->
<g id="edge5" class="edge">
<title>Node5&#45;&gt;Node6</title>
<path fill="none" stroke="#63b8ff" d="M208,-44.74C208,-35.45 208,-25.9 208,-19.26"/>
<polygon fill="#63b8ff" stroke="#63b8ff" points="204.5,-44.95 208,-54.95 211.5,-44.95 204.5,-44.95"/>
</g>
<!-- Node8&#45;&gt;Node2 -->
<g id="edge8" class="edge">
<title>Node8&#45;&gt;Node2</title>
<path fill="none" stroke="#63b8ff" d="M263.03,-260.59C234.26,-250.36 198.35,-237.59 171.41,-228.01"/>
<polygon fill="#63b8ff" stroke="#63b8ff" points="261.9,-263.9 272.5,-263.95 264.25,-257.31 261.9,-263.9"/>
</g>
<!-- Node9 -->
<g id="node9" class="node">
<title>Node9</title>
<g id="a_node9"><a xlink:href="Peak_8cpp.html" target="_top" xlink:title=" ">
<polygon fill="white" stroke="#666666" points="365,-222.5 259,-222.5 259,-203.5 365,-203.5 365,-222.5"/>
<text text-anchor="middle" x="312" y="-210.5" font-family="Helvetica,sans-Serif" font-size="10.00">lib/types/Peak.cpp</text>
</a>
</g>
</g>
<!-- Node8&#45;&gt;Node9 -->
<g id="edge9" class="edge">
<title>Node8&#45;&gt;Node9</title>
<path fill="none" stroke="#63b8ff" d="M312,-253.6C312,-242.8 312,-230.78 312,-222.84"/>
<polygon fill="#63b8ff" stroke="#63b8ff" points="308.5,-253.8 312,-263.8 315.5,-253.8 308.5,-253.8"/>
</g>
</g>
</svg>
