<?xml version="1.0" encoding="UTF-8" standalone="no"?>
<!DOCTYPE svg PUBLIC "-//W3C//DTD SVG 1.1//EN"
 "http://www.w3.org/Graphics/SVG/1.1/DTD/svg11.dtd">
<!-- Generated by graphviz version 2.43.0 (0)
 -->
<!-- Title: lib/signal/include/calgopp/signal/Signal.h Pages: 1 -->
<svg width="382pt" height="148pt"
 viewBox="0.00 0.00 381.50 148.00" xmlns="http://www.w3.org/2000/svg" xmlns:xlink="http://www.w3.org/1999/xlink">
<g id="graph0" class="graph" transform="scale(1 1) rotate(0) translate(4 144)">
<title>lib/signal/include/calgopp/signal/Signal.h</title>
<!-- Node1 -->
<g id="node1" class="node">
<title>Node1</title>
<g id="a_node1"><a xlink:title=" ">
<polygon fill="#999999" stroke="#666666" points="209,-140 77,-140 77,-110 209,-110 209,-140"/>
<text text-anchor="start" x="85" y="-128" font-family="Helvetica,sans-Serif" font-size="10.00">lib/signal/include</text>
<text text-anchor="middle" x="143" y="-117" font-family="Helvetica,sans-Serif" font-size="10.00">/calgopp/signal/Signal.h</text>
</a>
</g>
</g>
<!-- Node2 -->
<g id="node2" class="node">
<title>Node2</title>
<g id="a_node2"><a xlink:href="Point_8h.html" target="_top" xlink:title=" ">
<polygon fill="white" stroke="#666666" points="122,-19 0,-19 0,0 122,0 122,-19"/>
<text text-anchor="middle" x="61" y="-7" font-family="Helvetica,sans-Serif" font-size="10.00">calgopp/types/Point.h</text>
</a>
</g>
</g>
<!-- Node1&#45;&gt;Node2 -->
<g id="edge1" class="edge">
<title>Node1&#45;&gt;Node2</title>
<path fill="none" stroke="#63b8ff" d="M77.77,-109.94C58.82,-102.5 40.23,-91.19 29,-74 18.93,-58.59 31.44,-39.6 43.64,-26.42"/>
<polygon fill="#63b8ff" stroke="#63b8ff" points="46.41,-28.6 51,-19.05 41.46,-23.65 46.41,-28.6"/>
</g>
<!-- Node3 -->
<g id="node3" class="node">
<title>Node3</title>
<g id="a_node3"><a xlink:href="Peak_8h.html" target="_top" xlink:title=" ">
<polygon fill="white" stroke="#666666" points="159.5,-74 38.5,-74 38.5,-55 159.5,-55 159.5,-74"/>
<text text-anchor="middle" x="99" y="-62" font-family="Helvetica,sans-Serif" font-size="10.00">calgopp/types/Peak.h</text>
</a>
</g>
</g>
<!-- Node1&#45;&gt;Node3 -->
<g id="edge2" class="edge">
<title>Node1&#45;&gt;Node3</title>
<path fill="none" stroke="#63b8ff" d="M132.35,-109.84C126.16,-101.61 118.31,-91.18 111.79,-82.51"/>
<polygon fill="#63b8ff" stroke="#63b8ff" points="114.4,-80.15 105.59,-74.27 108.81,-84.36 114.4,-80.15"/>
</g>
<!-- Node4 -->
<g id="node4" class="node">
<title>Node4</title>
<g id="a_node4"><a xlink:href="Container_8h.html" target="_top" xlink:title=" ">
<polygon fill="white" stroke="#666666" points="296.5,-19 153.5,-19 153.5,0 296.5,0 296.5,-19"/>
<text text-anchor="middle" x="225" y="-7" font-family="Helvetica,sans-Serif" font-size="10.00">calgopp/types/Container.h</text>
</a>
</g>
</g>
<!-- Node1&#45;&gt;Node4 -->
<g id="edge4" class="edge">
<title>Node1&#45;&gt;Node4</title>
<path fill="none" stroke="#63b8ff" d="M153.39,-109.63C168.54,-88.65 196.65,-49.75 212.77,-27.42"/>
<polygon fill="#63b8ff" stroke="#63b8ff" points="215.67,-29.38 218.69,-19.23 210,-25.29 215.67,-29.38"/>
</g>
<!-- Node5 -->
<g id="node5" class="node">
<title>Node5</title>
<g id="a_node5"><a xlink:href="numeric_8h.html" target="_top" xlink:title=" ">
<polygon fill="white" stroke="#666666" points="373.5,-74 216.5,-74 216.5,-55 373.5,-55 373.5,-74"/>
<text text-anchor="middle" x="295" y="-62" font-family="Helvetica,sans-Serif" font-size="10.00">calgopp/algorithm/numeric.h</text>
</a>
</g>
</g>
<!-- Node1&#45;&gt;Node5 -->
<g id="edge5" class="edge">
<title>Node1&#45;&gt;Node5</title>
<path fill="none" stroke="#63b8ff" d="M179.41,-109.99C204.88,-100.18 238.59,-87.21 263.03,-77.81"/>
<polygon fill="#63b8ff" stroke="#63b8ff" points="264.48,-81 272.55,-74.14 261.96,-74.46 264.48,-81"/>
</g>
<!-- Node3&#45;&gt;Node2 -->
<g id="edge3" class="edge">
<title>Node3&#45;&gt;Node2</title>
<path fill="none" stroke="#63b8ff" d="M92.73,-54.75C87.41,-47.34 79.64,-36.5 73.12,-27.41"/>
<polygon fill="#63b8ff" stroke="#63b8ff" points="75.83,-25.18 67.16,-19.09 70.14,-29.26 75.83,-25.18"/>
</g>
<!-- Node5&#45;&gt;Node4 -->
<g id="edge6" class="edge">
<title>Node5&#45;&gt;Node4</title>
<path fill="none" stroke="#63b8ff" d="M283.75,-54.98C273.2,-47 257.2,-34.88 244.56,-25.31"/>
<polygon fill="#63b8ff" stroke="#63b8ff" points="246.54,-22.42 236.45,-19.17 242.31,-28 246.54,-22.42"/>
</g>
</g>
</svg>
