<?xml version="1.0" encoding="UTF-8" standalone="no"?>
<!DOCTYPE svg PUBLIC "-//W3C//DTD SVG 1.1//EN"
 "http://www.w3.org/Graphics/SVG/1.1/DTD/svg11.dtd">
<!-- Generated by graphviz version 2.43.0 (0)
 -->
<!-- Title: lib/signal/include/calgopp/signal/Signal.h Pages: 1 -->
<svg width="444pt" height="148pt"
 viewBox="0.00 0.00 444.00 148.00" xmlns="http://www.w3.org/2000/svg" xmlns:xlink="http://www.w3.org/1999/xlink">
<g id="graph0" class="graph" transform="scale(1 1) rotate(0) translate(4 144)">
<title>lib/signal/include/calgopp/signal/Signal.h</title>
<!-- Node1 -->
<g id="node1" class="node">
<title>Node1</title>
<g id="a_node1"><a xlink:title=" ">
<polygon fill="#999999" stroke="#666666" points="307,-140 175,-140 175,-110 307,-110 307,-140"/>
<text text-anchor="start" x="183" y="-128" font-family="Helvetica,sans-Serif" font-size="10.00">lib/signal/include</text>
<text text-anchor="middle" x="241" y="-117" font-family="Helvetica,sans-Serif" font-size="10.00">/calgopp/signal/Signal.h</text>
</a>
</g>
</g>
<!-- Node2 -->
<g id="node2" class="node">
<title>Node2</title>
<g id="a_node2"><a xlink:href="Point_8h.html" target="_top" xlink:title=" ">
<polygon fill="white" stroke="#666666" points="122,-19 0,-19 0,0 122,0 122,-19"/>
<text text-anchor="middle" x="61" y="-7" font-family="Helvetica,sans-Serif" font-size="10.00">calgopp/types/Point.h</text>
</a>
</g>
</g>
<!-- Node1&#45;&gt;Node2 -->
<g id="edge1" class="edge">
<title>Node1&#45;&gt;Node2</title>
<path fill="none" stroke="#63b8ff" d="M174.77,-116.6C121.91,-109.16 53.99,-95.66 37,-74 26.14,-60.16 36.11,-40.86 46.31,-27.18"/>
<polygon fill="#63b8ff" stroke="#63b8ff" points="49.26,-29.1 52.82,-19.12 43.82,-24.7 49.26,-29.1"/>
</g>
<!-- Node3 -->
<g id="node3" class="node">
<title>Node3</title>
<g id="a_node3"><a xlink:href="Peak_8h.html" target="_top" xlink:title=" ">
<polygon fill="white" stroke="#666666" points="166.5,-74 45.5,-74 45.5,-55 166.5,-55 166.5,-74"/>
<text text-anchor="middle" x="106" y="-62" font-family="Helvetica,sans-Serif" font-size="10.00">calgopp/types/Peak.h</text>
</a>
</g>
</g>
<!-- Node1&#45;&gt;Node3 -->
<g id="edge2" class="edge">
<title>Node1&#45;&gt;Node3</title>
<path fill="none" stroke="#63b8ff" d="M208.66,-109.99C186.34,-100.31 156.9,-87.56 135.27,-78.18"/>
<polygon fill="#63b8ff" stroke="#63b8ff" points="136.5,-74.9 125.94,-74.14 133.72,-81.33 136.5,-74.9"/>
</g>
<!-- Node4 -->
<g id="node4" class="node">
<title>Node4</title>
<g id="a_node4"><a xlink:title=" ">
<polygon fill="#e0e0e0" stroke="#999999" points="231.5,-74 184.5,-74 184.5,-55 231.5,-55 231.5,-74"/>
<text text-anchor="middle" x="208" y="-62" font-family="Helvetica,sans-Serif" font-size="10.00">vector</text>
</a>
</g>
</g>
<!-- Node1&#45;&gt;Node4 -->
<g id="edge4" class="edge">
<title>Node1&#45;&gt;Node4</title>
<path fill="none" stroke="#63b8ff" d="M233.01,-109.84C228.47,-101.78 222.73,-91.62 217.9,-83.06"/>
<polygon fill="#63b8ff" stroke="#63b8ff" points="220.91,-81.26 212.94,-74.27 214.81,-84.7 220.91,-81.26"/>
</g>
<!-- Node5 -->
<g id="node5" class="node">
<title>Node5</title>
<g id="a_node5"><a xlink:title=" ">
<polygon fill="#e0e0e0" stroke="#999999" points="300,-74 250,-74 250,-55 300,-55 300,-74"/>
<text text-anchor="middle" x="275" y="-62" font-family="Helvetica,sans-Serif" font-size="10.00">cstdint</text>
</a>
</g>
</g>
<!-- Node1&#45;&gt;Node5 -->
<g id="edge5" class="edge">
<title>Node1&#45;&gt;Node5</title>
<path fill="none" stroke="#63b8ff" d="M249.23,-109.84C253.91,-101.78 259.82,-91.62 264.8,-83.06"/>
<polygon fill="#63b8ff" stroke="#63b8ff" points="267.91,-84.67 269.91,-74.27 261.85,-81.15 267.91,-84.67"/>
</g>
<!-- Node6 -->
<g id="node6" class="node">
<title>Node6</title>
<g id="a_node6"><a xlink:title=" ">
<polygon fill="#e0e0e0" stroke="#999999" points="362,-74 318,-74 318,-55 362,-55 362,-74"/>
<text text-anchor="middle" x="340" y="-62" font-family="Helvetica,sans-Serif" font-size="10.00">limits</text>
</a>
</g>
</g>
<!-- Node1&#45;&gt;Node6 -->
<g id="edge6" class="edge">
<title>Node1&#45;&gt;Node6</title>
<path fill="none" stroke="#63b8ff" d="M264.71,-109.99C280.35,-100.75 300.74,-88.7 316.36,-79.47"/>
<polygon fill="#63b8ff" stroke="#63b8ff" points="318.55,-82.24 325.38,-74.14 314.99,-76.21 318.55,-82.24"/>
</g>
<!-- Node7 -->
<g id="node7" class="node">
<title>Node7</title>
<g id="a_node7"><a xlink:title=" ">
<polygon fill="#e0e0e0" stroke="#999999" points="436,-74 380,-74 380,-55 436,-55 436,-74"/>
<text text-anchor="middle" x="408" y="-62" font-family="Helvetica,sans-Serif" font-size="10.00">optional</text>
</a>
</g>
</g>
<!-- Node1&#45;&gt;Node7 -->
<g id="edge7" class="edge">
<title>Node1&#45;&gt;Node7</title>
<path fill="none" stroke="#63b8ff" d="M281,-109.99C309.24,-100.1 346.68,-86.98 373.58,-77.56"/>
<polygon fill="#63b8ff" stroke="#63b8ff" points="375.06,-80.75 383.34,-74.14 372.74,-74.14 375.06,-80.75"/>
</g>
<!-- Node3&#45;&gt;Node2 -->
<g id="edge3" class="edge">
<title>Node3&#45;&gt;Node2</title>
<path fill="none" stroke="#63b8ff" d="M98.57,-54.75C92.15,-47.18 82.69,-36.05 74.88,-26.84"/>
<polygon fill="#63b8ff" stroke="#63b8ff" points="77.43,-24.45 68.29,-19.09 72.1,-28.98 77.43,-24.45"/>
</g>
</g>
</svg>
