<?xml version="1.0" encoding="UTF-8" standalone="no"?>
<!DOCTYPE svg PUBLIC "-//W3C//DTD SVG 1.1//EN"
 "http://www.w3.org/Graphics/SVG/1.1/DTD/svg11.dtd">
<!-- Generated by graphviz version 2.43.0 (0)
 -->
<!-- Title: lib/signal/Signal.cpp Pages: 1 -->
<svg width="480pt" height="192pt"
 viewBox="0.00 0.00 479.50 192.00" xmlns="http://www.w3.org/2000/svg" xmlns:xlink="http://www.w3.org/1999/xlink">
<g id="graph0" class="graph" transform="scale(1 1) rotate(0) translate(4 188)">
<title>lib/signal/Signal.cpp</title>
<!-- Node1 -->
<g id="node1" class="node">
<title>Node1</title>
<g id="a_node1"><a xlink:title=" ">
<polygon fill="#999999" stroke="#666666" points="413,-184 299,-184 299,-165 413,-165 413,-184"/>
<text text-anchor="middle" x="356" y="-172" font-family="Helvetica,sans-Serif" font-size="10.00">lib/signal/Signal.cpp</text>
</a>
</g>
</g>
<!-- Node2 -->
<g id="node2" class="node">
<title>Node2</title>
<g id="a_node2"><a xlink:href="Signal_8h.html" target="_top" xlink:title=" ">
<polygon fill="white" stroke="#666666" points="305.5,-129 176.5,-129 176.5,-110 305.5,-110 305.5,-129"/>
<text text-anchor="middle" x="241" y="-117" font-family="Helvetica,sans-Serif" font-size="10.00">calgopp/signal/Signal.h</text>
</a>
</g>
</g>
<!-- Node1&#45;&gt;Node2 -->
<g id="edge1" class="edge">
<title>Node1&#45;&gt;Node2</title>
<path fill="none" stroke="#63b8ff" d="M337.52,-164.98C319.02,-156.46 290.32,-143.23 269.02,-133.41"/>
<polygon fill="#63b8ff" stroke="#63b8ff" points="270.36,-130.18 259.81,-129.17 267.43,-136.53 270.36,-130.18"/>
</g>
<!-- Node9 -->
<g id="node9" class="node">
<title>Node9</title>
<g id="a_node9"><a xlink:title=" ">
<polygon fill="#e0e0e0" stroke="#999999" points="388,-129 324,-129 324,-110 388,-110 388,-129"/>
<text text-anchor="middle" x="356" y="-117" font-family="Helvetica,sans-Serif" font-size="10.00">algorithm</text>
</a>
</g>
</g>
<!-- Node1&#45;&gt;Node9 -->
<g id="edge9" class="edge">
<title>Node1&#45;&gt;Node9</title>
<path fill="none" stroke="#63b8ff" d="M356,-164.75C356,-157.8 356,-147.85 356,-139.13"/>
<polygon fill="#63b8ff" stroke="#63b8ff" points="359.5,-139.09 356,-129.09 352.5,-139.09 359.5,-139.09"/>
</g>
<!-- Node10 -->
<g id="node10" class="node">
<title>Node10</title>
<g id="a_node10"><a xlink:title=" ">
<polygon fill="#e0e0e0" stroke="#999999" points="471.5,-129 406.5,-129 406.5,-110 471.5,-110 471.5,-129"/>
<text text-anchor="middle" x="439" y="-117" font-family="Helvetica,sans-Serif" font-size="10.00">exception</text>
</a>
</g>
</g>
<!-- Node1&#45;&gt;Node10 -->
<g id="edge10" class="edge">
<title>Node1&#45;&gt;Node10</title>
<path fill="none" stroke="#63b8ff" d="M369.34,-164.98C382.09,-156.84 401.55,-144.41 416.67,-134.76"/>
<polygon fill="#63b8ff" stroke="#63b8ff" points="418.88,-137.5 425.42,-129.17 415.11,-131.6 418.88,-137.5"/>
</g>
<!-- Node3 -->
<g id="node3" class="node">
<title>Node3</title>
<g id="a_node3"><a xlink:href="Point_8h.html" target="_top" xlink:title=" ">
<polygon fill="white" stroke="#666666" points="122,-19 0,-19 0,0 122,0 122,-19"/>
<text text-anchor="middle" x="61" y="-7" font-family="Helvetica,sans-Serif" font-size="10.00">calgopp/types/Point.h</text>
</a>
</g>
</g>
<!-- Node2&#45;&gt;Node3 -->
<g id="edge2" class="edge">
<title>Node2&#45;&gt;Node3</title>
<path fill="none" stroke="#63b8ff" d="M176.43,-113.12C123.41,-107.2 54.34,-95.53 37,-74 25.96,-60.3 35.96,-40.98 46.22,-27.26"/>
<polygon fill="#63b8ff" stroke="#63b8ff" points="49.2,-29.14 52.77,-19.16 43.76,-24.73 49.2,-29.14"/>
</g>
<!-- Node4 -->
<g id="node4" class="node">
<title>Node4</title>
<g id="a_node4"><a xlink:href="Peak_8h.html" target="_top" xlink:title=" ">
<polygon fill="white" stroke="#666666" points="166.5,-74 45.5,-74 45.5,-55 166.5,-55 166.5,-74"/>
<text text-anchor="middle" x="106" y="-62" font-family="Helvetica,sans-Serif" font-size="10.00">calgopp/types/Peak.h</text>
</a>
</g>
</g>
<!-- Node2&#45;&gt;Node4 -->
<g id="edge3" class="edge">
<title>Node2&#45;&gt;Node4</title>
<path fill="none" stroke="#63b8ff" d="M219.31,-109.98C197.2,-101.3 162.68,-87.75 137.55,-77.88"/>
<polygon fill="#63b8ff" stroke="#63b8ff" points="138.67,-74.57 128.08,-74.17 136.11,-81.08 138.67,-74.57"/>
</g>
<!-- Node5 -->
<g id="node5" class="node">
<title>Node5</title>
<g id="a_node5"><a xlink:title=" ">
<polygon fill="#e0e0e0" stroke="#999999" points="231.5,-74 184.5,-74 184.5,-55 231.5,-55 231.5,-74"/>
<text text-anchor="middle" x="208" y="-62" font-family="Helvetica,sans-Serif" font-size="10.00">vector</text>
</a>
</g>
</g>
<!-- Node2&#45;&gt;Node5 -->
<g id="edge5" class="edge">
<title>Node2&#45;&gt;Node5</title>
<path fill="none" stroke="#63b8ff" d="M235.55,-109.75C230.99,-102.42 224.33,-91.73 218.71,-82.7"/>
<polygon fill="#63b8ff" stroke="#63b8ff" points="221.6,-80.73 213.35,-74.09 215.66,-84.43 221.6,-80.73"/>
</g>
<!-- Node6 -->
<g id="node6" class="node">
<title>Node6</title>
<g id="a_node6"><a xlink:title=" ">
<polygon fill="#e0e0e0" stroke="#999999" points="300,-74 250,-74 250,-55 300,-55 300,-74"/>
<text text-anchor="middle" x="275" y="-62" font-family="Helvetica,sans-Serif" font-size="10.00">cstdint</text>
</a>
</g>
</g>
<!-- Node2&#45;&gt;Node6 -->
<g id="edge6" class="edge">
<title>Node2&#45;&gt;Node6</title>
<path fill="none" stroke="#63b8ff" d="M246.61,-109.75C251.32,-102.42 258.17,-91.73 263.97,-82.7"/>
<polygon fill="#63b8ff" stroke="#63b8ff" points="267.04,-84.4 269.49,-74.09 261.14,-80.62 267.04,-84.4"/>
</g>
<!-- Node7 -->
<g id="node7" class="node">
<title>Node7</title>
<g id="a_node7"><a xlink:title=" ">
<polygon fill="#e0e0e0" stroke="#999999" points="362,-74 318,-74 318,-55 362,-55 362,-74"/>
<text text-anchor="middle" x="340" y="-62" font-family="Helvetica,sans-Serif" font-size="10.00">limits</text>
</a>
</g>
</g>
<!-- Node2&#45;&gt;Node7 -->
<g id="edge7" class="edge">
<title>Node2&#45;&gt;Node7</title>
<path fill="none" stroke="#63b8ff" d="M256.91,-109.98C272.55,-101.61 296.66,-88.7 314.88,-78.95"/>
<polygon fill="#63b8ff" stroke="#63b8ff" points="316.64,-81.98 323.8,-74.17 313.34,-75.8 316.64,-81.98"/>
</g>
<!-- Node8 -->
<g id="node8" class="node">
<title>Node8</title>
<g id="a_node8"><a xlink:title=" ">
<polygon fill="#e0e0e0" stroke="#999999" points="436,-74 380,-74 380,-55 436,-55 436,-74"/>
<text text-anchor="middle" x="408" y="-62" font-family="Helvetica,sans-Serif" font-size="10.00">optional</text>
</a>
</g>
</g>
<!-- Node2&#45;&gt;Node8 -->
<g id="edge8" class="edge">
<title>Node2&#45;&gt;Node8</title>
<path fill="none" stroke="#63b8ff" d="M267.83,-109.98C295.87,-101.09 340.05,-87.07 371.3,-77.15"/>
<polygon fill="#63b8ff" stroke="#63b8ff" points="372.49,-80.44 380.96,-74.08 370.37,-73.77 372.49,-80.44"/>
</g>
<!-- Node4&#45;&gt;Node3 -->
<g id="edge4" class="edge">
<title>Node4&#45;&gt;Node3</title>
<path fill="none" stroke="#63b8ff" d="M98.57,-54.75C92.15,-47.18 82.69,-36.05 74.88,-26.84"/>
<polygon fill="#63b8ff" stroke="#63b8ff" points="77.43,-24.45 68.29,-19.09 72.1,-28.98 77.43,-24.45"/>
</g>
</g>
</svg>
