<?xml version="1.0" encoding="UTF-8" standalone="no"?>
<!DOCTYPE svg PUBLIC "-//W3C//DTD SVG 1.1//EN"
 "http://www.w3.org/Graphics/SVG/1.1/DTD/svg11.dtd">
<!-- Generated by graphviz version 2.43.0 (0)
 -->
<!-- Title: calgopp::types::Peak Pages: 1 -->
<svg width="220pt" height="313pt"
 viewBox="0.00 0.00 220.00 313.00" xmlns="http://www.w3.org/2000/svg" xmlns:xlink="http://www.w3.org/1999/xlink">
<g id="graph0" class="graph" transform="scale(1 1) rotate(0) translate(4 309)">
<title>calgopp::types::Peak</title>
<!-- Node1 -->
<g id="node1" class="node">
<title>Node1</title>
<g id="a_node1"><a xlink:title=" ">
<polygon fill="#999999" stroke="#666666" points="210.5,-85 86.5,-85 86.5,0 210.5,0 210.5,-85"/>
<text text-anchor="middle" x="148.5" y="-73" font-family="Helvetica,sans-Serif" font-size="10.00">{calgopp::types::Peak</text>
<text text-anchor="start" x="94.5" y="-62" font-family="Helvetica,sans-Serif" font-size="10.00">||+ Peak()</text>
<text text-anchor="start" x="94.5" y="-51" font-family="Helvetica,sans-Serif" font-size="10.00">+ Peak()</text>
<text text-anchor="start" x="94.5" y="-40" font-family="Helvetica,sans-Serif" font-size="10.00">+ Peak()</text>
<text text-anchor="start" x="94.5" y="-29" font-family="Helvetica,sans-Serif" font-size="10.00">+ Peak()</text>
<text text-anchor="start" x="94.5" y="-18" font-family="Helvetica,sans-Serif" font-size="10.00">+ Peak()</text>
<text text-anchor="middle" x="148.5" y="-7" font-family="Helvetica,sans-Serif" font-size="10.00">}</text>
</a>
</g>
</g>
<!-- Node2 -->
<g id="node2" class="node">
<title>Node2</title>
<g id="a_node2"><a xlink:href="structcalgopp_1_1types_1_1Point.html" target="_top" xlink:title=" ">
<polygon fill="white" stroke="#666666" points="125,-217 0,-217 0,-132 125,-132 125,-217"/>
<text text-anchor="middle" x="62.5" y="-205" font-family="Helvetica,sans-Serif" font-size="10.00">{calgopp::types::Point</text>
<text text-anchor="start" x="8" y="-194" font-family="Helvetica,sans-Serif" font-size="10.00">||+ Point()</text>
<text text-anchor="start" x="8" y="-183" font-family="Helvetica,sans-Serif" font-size="10.00">+ Point()</text>
<text text-anchor="start" x="8" y="-172" font-family="Helvetica,sans-Serif" font-size="10.00">+ Point()</text>
<text text-anchor="start" x="8" y="-161" font-family="Helvetica,sans-Serif" font-size="10.00">+ operator+=()</text>
<text text-anchor="start" x="8" y="-150" font-family="Helvetica,sans-Serif" font-size="10.00">+ operator&#45;=()</text>
<text text-anchor="middle" x="62.5" y="-139" font-family="Helvetica,sans-Serif" font-size="10.00">}</text>
</a>
</g>
</g>
<!-- Node2&#45;&gt;Node1 -->
<g id="edge1" class="edge">
<title>Node2&#45;&gt;Node1</title>
<path fill="none" stroke="#63b8ff" d="M95.82,-123.13C104.1,-110.61 112.89,-97.33 120.87,-85.27"/>
<polygon fill="none" stroke="#63b8ff" points="92.78,-121.38 90.18,-131.65 98.62,-125.24 92.78,-121.38"/>
</g>
<!-- Node3 -->
<g id="node3" class="node">
<title>Node3</title>
<g id="a_node3"><a xlink:title=" ">
<polygon fill="white" stroke="#666666" points="102.5,-305 22.5,-305 22.5,-275 102.5,-275 102.5,-305"/>
<text text-anchor="middle" x="62.5" y="-293" font-family="Helvetica,sans-Serif" font-size="10.00">{long double</text>
<text text-anchor="middle" x="62.5" y="-282" font-family="Helvetica,sans-Serif" font-size="10.00">||}</text>
</a>
</g>
</g>
<!-- Node3&#45;&gt;Node2 -->
<g id="edge2" class="edge">
<title>Node3&#45;&gt;Node2</title>
<path fill="none" stroke="#404040" d="M62.5,-274.63C62.5,-263.01 62.5,-245.89 62.5,-229.13"/>
<polygon fill="none" stroke="#404040" points="62.5,-229.08 58.5,-223.08 62.5,-217.08 66.5,-223.08 62.5,-229.08"/>
<text text-anchor="middle" x="71.5" y="-249" font-family="Helvetica,sans-Serif" font-size="10.00"> +x</text>
<text text-anchor="middle" x="71.5" y="-238" font-family="Helvetica,sans-Serif" font-size="10.00">+y</text>
</g>
<!-- Node4 -->
<g id="node4" class="node">
<title>Node4</title>
<g id="a_node4"><a xlink:title=" ">
<polygon fill="white" stroke="#666666" points="212,-189.5 143,-189.5 143,-159.5 212,-159.5 212,-189.5"/>
<text text-anchor="middle" x="177.5" y="-177.5" font-family="Helvetica,sans-Serif" font-size="10.00">{PeakType</text>
<text text-anchor="middle" x="177.5" y="-166.5" font-family="Helvetica,sans-Serif" font-size="10.00">||}</text>
</a>
</g>
</g>
<!-- Node4&#45;&gt;Node1 -->
<g id="edge3" class="edge">
<title>Node4&#45;&gt;Node1</title>
<path fill="none" stroke="#404040" d="M174.34,-159.34C170.99,-144.33 165.5,-119.72 160.44,-97.03"/>
<polygon fill="none" stroke="#404040" points="160.38,-96.76 155.17,-91.78 157.77,-85.05 162.98,-90.03 160.38,-96.76"/>
<text text-anchor="middle" x="180.5" y="-106" font-family="Helvetica,sans-Serif" font-size="10.00"> +type</text>
</g>
</g>
</svg>
