<?xml version="1.0" encoding="UTF-8" standalone="no"?>
<!DOCTYPE svg PUBLIC "-//W3C//DTD SVG 1.1//EN"
 "http://www.w3.org/Graphics/SVG/1.1/DTD/svg11.dtd">
<!-- Generated by graphviz version 2.43.0 (0)
 -->
<!-- Title: calgopp::types::Peak Pages: 1 -->
<svg width="220pt" height="269pt"
 viewBox="0.00 0.00 220.00 269.00" xmlns="http://www.w3.org/2000/svg" xmlns:xlink="http://www.w3.org/1999/xlink">
<g id="graph0" class="graph" transform="scale(1 1) rotate(0) translate(4 265)">
<title>calgopp::types::Peak</title>
<!-- Node1 -->
<g id="node1" class="node">
<title>Node1</title>
<g id="a_node1"><a xlink:title=" ">
<polygon fill="#999999" stroke="#666666" points="210.5,-52 86.5,-52 86.5,0 210.5,0 210.5,-52"/>
<text text-anchor="middle" x="148.5" y="-40" font-family="Helvetica,sans-Serif" font-size="10.00">{calgopp::types::Peak</text>
<text text-anchor="start" x="94.5" y="-29" font-family="Helvetica,sans-Serif" font-size="10.00">||+ Peak()</text>
<text text-anchor="start" x="94.5" y="-18" font-family="Helvetica,sans-Serif" font-size="10.00">+ Peak()</text>
<text text-anchor="middle" x="148.5" y="-7" font-family="Helvetica,sans-Serif" font-size="10.00">}</text>
</a>
</g>
</g>
<!-- Node2 -->
<g id="node2" class="node">
<title>Node2</title>
<g id="a_node2"><a xlink:href="structcalgopp_1_1types_1_1Point.html" target="_top" xlink:title=" ">
<polygon fill="white" stroke="#666666" points="125,-173 0,-173 0,-99 125,-99 125,-173"/>
<text text-anchor="middle" x="62.5" y="-161" font-family="Helvetica,sans-Serif" font-size="10.00">{calgopp::types::Point</text>
<text text-anchor="start" x="8" y="-150" font-family="Helvetica,sans-Serif" font-size="10.00">||+ Point()</text>
<text text-anchor="start" x="8" y="-139" font-family="Helvetica,sans-Serif" font-size="10.00">+ Point()</text>
<text text-anchor="start" x="8" y="-128" font-family="Helvetica,sans-Serif" font-size="10.00">+ operator+=()</text>
<text text-anchor="start" x="8" y="-117" font-family="Helvetica,sans-Serif" font-size="10.00">+ operator&#45;=()</text>
<text text-anchor="middle" x="62.5" y="-106" font-family="Helvetica,sans-Serif" font-size="10.00">}</text>
</a>
</g>
</g>
<!-- Node2&#45;&gt;Node1 -->
<g id="edge1" class="edge">
<title>Node2&#45;&gt;Node1</title>
<path fill="none" stroke="#63b8ff" d="M97.79,-90.68C108.27,-77.52 119.38,-63.57 128.52,-52.09"/>
<polygon fill="none" stroke="#63b8ff" points="94.87,-88.73 91.38,-98.74 100.34,-93.09 94.87,-88.73"/>
</g>
<!-- Node3 -->
<g id="node3" class="node">
<title>Node3</title>
<g id="a_node3"><a xlink:title=" ">
<polygon fill="white" stroke="#666666" points="102.5,-261 22.5,-261 22.5,-231 102.5,-231 102.5,-261"/>
<text text-anchor="middle" x="62.5" y="-249" font-family="Helvetica,sans-Serif" font-size="10.00">{long double</text>
<text text-anchor="middle" x="62.5" y="-238" font-family="Helvetica,sans-Serif" font-size="10.00">||}</text>
</a>
</g>
</g>
<!-- Node3&#45;&gt;Node2 -->
<g id="edge2" class="edge">
<title>Node3&#45;&gt;Node2</title>
<path fill="none" stroke="#404040" d="M62.5,-230.88C62.5,-219.31 62.5,-202.21 62.5,-185.77"/>
<polygon fill="none" stroke="#404040" points="62.5,-185.43 58.5,-179.43 62.5,-173.43 66.5,-179.43 62.5,-185.43"/>
<text text-anchor="middle" x="71.5" y="-205" font-family="Helvetica,sans-Serif" font-size="10.00"> +x</text>
<text text-anchor="middle" x="71.5" y="-194" font-family="Helvetica,sans-Serif" font-size="10.00">+y</text>
</g>
<!-- Node4 -->
<g id="node4" class="node">
<title>Node4</title>
<g id="a_node4"><a xlink:title=" ">
<polygon fill="white" stroke="#666666" points="212,-151 143,-151 143,-121 212,-121 212,-151"/>
<text text-anchor="middle" x="177.5" y="-139" font-family="Helvetica,sans-Serif" font-size="10.00">{PeakType</text>
<text text-anchor="middle" x="177.5" y="-128" font-family="Helvetica,sans-Serif" font-size="10.00">||}</text>
</a>
</g>
</g>
<!-- Node4&#45;&gt;Node1 -->
<g id="edge3" class="edge">
<title>Node4&#45;&gt;Node1</title>
<path fill="none" stroke="#404040" d="M173.71,-120.88C169.84,-106.49 163.68,-83.55 158.42,-63.95"/>
<polygon fill="none" stroke="#404040" points="158.4,-63.88 152.98,-59.12 155.29,-52.29 160.71,-57.04 158.4,-63.88"/>
<text text-anchor="middle" x="179.5" y="-73" font-family="Helvetica,sans-Serif" font-size="10.00"> +type</text>
</g>
</g>
</svg>
